<svg xmlns="http://www.w3.org/2000/svg" width="768" height="515" viewBox="0 0 768 515"><g fill-rule="evenodd" clip-rule="evenodd"><path fill="#FEBA2C" d="M616.655 243.894c13.227-15.64 18.617-33.919 17.599-54.639-.517-10.507-.259-21.071.069-31.594.056-1.77 2.248-4.967 3.461-4.97 14.206-.037 28.486-.405 42.603.952 14.955 1.437 24.81 11.482 31.965 24.687 8.269 15.257 11.178 32.237 14.299 49.073 6.605 35.646 2.462 70.025-12.111 103.042-6.437 14.583-14.936 27.352-31.027 30.604-9.38 1.896-19.243 1.45-28.896 1.563-11.326.133-22.658-.27-33.988-.44-2.494-4.032-.072-5.26 3.162-6.154 6.434-1.777 7.503-2.812 6.506-9.813-1-7.019-1.646-14.399-.994-21.011.684-6.945.513-13.965 1.38-20.894.633-5.058 1.186-10.282-2.366-14.682-1.106-1.371-.837-2.744-.154-4.187 3.422-7.232 3.653-14.286 1.054-22.167-1.261-3.82-2.277-9.217.989-13.456 1.154-1.498 1.337-3.144.188-4.74-1.306-1.812-3.103-1.807-5.036-1.399-2.881.608-5.738 3.039-8.703.225z"/><path fill="#1D5B87" d="M563.574 45.399l4.826.635c8.763 1.145 17.009 3.976 24.812 8.253l2.571 1.479c.664.392 1.635.283 1.932 1.279l3.192 2.304.053.037 2.227 1.786c.529.025.794.325.83.864l6.554 6.854c1.521 1.333 2.445 3.133 3.491 4.838l.185.303c.415-.012.618.103.612.344-.009.305-.064.458-.17.458l.815 1.585c4.25 7.555 6.351 15.685 6.339 24.469-.042 32.156-.099 64.312.039 96.468.036 8.54-2.008 16.431-5.265 24.111l-.176.34c-1.429 2.688-2.691 5.48-4.54 7.908l-17.258 15.631c-.439.415-.96.613-1.549.625l-4.647 1.955c-3.578 2.199-7.79 1.721-11.591 2.984l-1.9.212c-1.782-.077-3.566-.218-5.341.101l-4.737-.426c-1.654-1.035-3.32-.444-4.985-.032l-2.444.024c-3.933-2.469-5.378-5.979-5.108-10.829.425-7.669-1.165-15.465 1.626-22.979.574-1.545-.383-2.896-1.266-4.124-1.489-2.069-1.269-4.449-1.154-6.818.53-10.959 2.729-21.854 1.114-32.898-.284-1.95-.155-4.185.931-5.624 3.775-5.008 1.49-9.147-1.324-13.259-1.695-2.478-2.566-5.022-.852-7.749 5.951-9.458 1.854-17.234-3.681-24.804-.382-.523-.632-1.086-.663-2.388 11.526-4.804 3.16-14.065 3.492-21.429.227-5.005-1.593-9.916 1.352-14.862 1.63-2.738.573-6.407.359-9.504-.557-8.061 3.709-15.944.503-24.09-.758-1.929.566-3.713 2.674-4.377 2.719-.253 5.402.543 8.122.345z"/><path fill="#FEC43B" d="M528.938 474.794c-15.981 1.32-31.687-.248-47.096-4.899-2.509-3.969-1.19-8.481-.967-12.534.543-9.844-1.668-19.54-.945-29.295.487-6.595 1.846-13.151 1.014-19.779-1.292-10.288 2.435-20.786-1.328-30.979-.569-1.54-.45-3.441-.124-5.115 3.398-17.416 1.901-35.101 1.47-52.545-.375-15.104 1.282-30.224-.422-45.312-.376-3.333.318-6.872 2.562-9.71l22.295.009c7.019 1.763 14.036 2.489 21.054-.01l3.72.015c1.249 1.628 2.487 1.605 3.712-.029l2.479-.001c3.268 2.948 6.356 5.922 8.214 10.238 2.405 5.584 3.131 10.446-1.71 15.185-2.98 2.918-2.375 7.97.7 10.79.936.858 2.09 1.361 3.168 1.987 2.168 1.259 4.846 2.463 3.398 5.763-1.502 3.423-4.122 3.688-7.525 1.113.458 5.075.269 9.516-3.152 13.112 4.688 4.295 7.355 8.875 6.254 15.077-.489 2.753 1.256 4.304 3.297 5.628 1.775 1.152 2.384 2.904 1.762 5.013-.574 1.947-2.179 2.465-3.847 2.723-4.199.649-8.378 1.424-12.77 1.607 1.782 4.627 8.351 3.702 8.388 9.353-5.489.169-10.982.556-16.466.44-4.863-.103-4.373 3.235-4.414 6.444-.044 3.273-.387 6.546 4.405 6.459 5.492-.099 10.99.213 16.484.347 1.235 2.425-.539 2.979-2.103 3.546-7.893 2.862-8.389 3.612-8.28 13.285 8.465 1.68 9.694 8.365 9.525 15.907-.066 3.005-.373 6.021 1.874 8.48.56.613 1.102 1.47.99 2.298-1.693 12.692 1.479 26.321-7.008 37.718-3.92 5.267-5.282 12.017-8.608 17.671z"/><path fill="#08797F" d="M24.351 216.9l.371-2.65c-.485-7.412 2.093-14.291 3.828-21.223 3.724-14.878 8.295-29.5 15.772-42.911 1.09-1.222 2.367-2.318 2.73-4.083.161-.52.381-1.012.64-1.485.994-1.264 1.848-2.623 2.532-4.109.301-.511.648-.973 1.029-1.418 12.474-19.508 26.049-38.025 42.651-54.021 25.191-24.271 53.93-42.067 86.71-52.753 11.035-3.598 22.246-6.425 33.73-7.622 2.601-.271 2.828-2.725 4.759-3.074 2.136.729 4.309 1.208 6.577 1.147 16.312-2.406 32.648-1.704 48.873.353 6.197.786 12.475 1.867 18.604 3.39 1.595.755 2.889 2.243 4.83 2.231.908.1 1.738.388 2.405 1.075 2.272 3.979.872 7.355-1.589 10.562-3.401 2.233-6.787.677-10.163-.088-3.027-.686-6.077-1.188-9.161-1.505-32.447-5.392-64.172-3.683-95.641 7.446-14.181 5.015-27.636 11.242-40.55 18.695-11.694 6.75-22.425 15.247-32.651 24.333-13.708 12.181-25.879 25.932-36.124 41.26-8.116 12.142-14.1 25.691-20.235 39.099-5.748 12.562-8.361 26.041-12.247 39.147-1.339 4.516-1.287 9.363-1.694 14.045-.593 6.822-1.315 13.642-1.815 20.457-1.841 25.077-.104 50.187 7.798 73.828 7.603 22.749 16.774 44.962 30.801 64.871 15.866 22.519 34.335 41.878 56.903 56.541 14.047 9.127 28.652 17.146 44.748 22.903 19.466 6.964 39.337 9.209 59.272 11.889 14.583 1.96 29.216-.136 43.635-3.133.609-.175 1.231-.28 1.858-.356 1.234-.139 2.459-.098 3.65.304 3.009 1.68 2.531 4.655 2.001 7.218-.524 2.532-.305 5.004-.373 7.708-3.184 2.671-7.653 2.284-10.958 4.704-1.003.531-2.053.697-3.149.396-.708-.699-1.454-1.094-2.316-.22-.732.246-1.479.279-2.235.179-.992-.146-1.979-.106-2.964.114-.774.146-1.544.149-2.311-.019-1.204-.771-2.261-1.105-2.536.93-.798.366-1.623.414-2.469.29-2.581-.738-5.14-.499-7.697.168-.958.123-1.905.078-2.853-.101-5.331-.983-10.71-.201-16.057-.519-1.023-.044-2.027-.217-3.018-.469-15.356-.795-30.141-5.24-45.234-7.665-9.782-.171-18.12-5.204-26.846-8.84-13.626-5.676-26.055-13.713-38.418-21.827-.484-.327-.938-.707-1.363-1.113-1.668-1.89-3.573-3.448-5.897-4.393-.48-.236-.923-.538-1.344-.875-.77-.724-1.499-1.499-2.343-2.143-.437-.312-.841-.663-1.237-1.026-2.176-2.052-4.064-4.435-6.574-6.096-.474-.301-.916-.643-1.351-.999-.669-.537-1.292-1.123-1.902-1.729-13.83-12.537-25.099-27.425-36.066-42.589-.536-.654-1.026-1.347-1.474-2.068-.569-.963-1.045-1.983-1.587-2.972-.319-.491-.609-.994-.913-1.494-.545-.77-1.107-1.516-1.664-2.279-13.012-20.889-22.141-43.39-27.907-67.631-4.125-17.339-6.736-34.732-7.189-52.517-.334-13.082.536-26.13 1.486-39.166.156-2.171 1.401-4.024 1.922-6.102z"/><path fill="#FEC035" d="M542.537 362.198c-2.704-1.963-5.526-3.773-8.067-5.945-1.455-1.243-2.45-3.069-3.945-5.016 6.394-.586 11.196-.914 15.963-1.544 1.17-.155 2.218-1.296 3.322-1.982-.75-1.072-1.3-2.755-2.284-3.103-3.512-1.239-4.351-3.827-3.597-7.059 1.581-6.771-1.328-10.814-7.839-13.676 6.146-4.601 5.976-10.74 5.261-17.928l5.35 4.596c1.001-.914 2.156-1.966 3.677-3.351-1.479-1.205-2.146-2.146-2.992-2.374-5.938-1.604-8.936-5.445-8.293-11.872.137-1.367 1.014-3.192 2.085-3.827 5.258-3.12 4.799-7.598 2.607-12.085-2.115-4.332-4.921-8.297-7.424-12.424l4.96.013c.409.447.819.471 1.229.003l30.959-.785c1.944-.818 4.064-.275 6.04-.853l5.664-.849c.55.464 1.065.782 1.215-.335.269.06.469-.037.598-.29.815-.369 1.609-.81 2.531-.825 10.793-2.516 18.934-9.677 27.099-16.794 1.813-.254 3.726-.206 5.422-.812 8.17-2.922 8.149-2.985 11.864 5.458l-3.43 3.374v10.555l-1.393.581 4.68 4.557c-1.196 6.505-2.474 13.449-3.904 21.232l2.91 1.327c-1.368 11.346.697 22.854-2 36.336.207 3.427.539 9.387.945 15.342.129 1.909.521 3.796.684 5.704.588 6.951-1.22 9.521-7.774 9.88-3.394.185-4.371 1.608-4.031 4.744-21.485.016-42.971.03-64.456.047-3.71-1.281-7.422-1.258-11.135-.018l-2.501-.002z"/><path fill="#1B5D8A" d="M556.147 45.38c-1.83 1.999-3.965 3.369-.63 6.611 1.325 1.289-.281 5.756-.409 8.783-.292 6.891-.503 13.785-.716 20.678-.02.62.499 1.508.246 1.834-7.042 9.103-1.384 18.077.208 27.071 1 5.643-2.225 8.032-5.865 9.131 2.806 5.375 5.593 10.713 8.533 16.35-1.77 4.103-5.633 8.996-5.412 13.681.225 4.752 4.48 9.299 7.208 14.378-5.378 2.372-5.982 6.812-4.592 12.558.669 2.763-.842 6.037-.511 8.974.24 2.119 1.89 4.064 3.061 6.383l-5.022 1.34c5.322 6.541-4.028 15.653 4.231 21.337-3.435 12.284-5.069 24.379.972 36.299-4.903.14-9.806.279-14.709.418-.953-.156-1.905-.167-2.854.035l-18.356-.436c-2.09-6.644-6.111-12.885-3.09-20.5.833-2.099 1.819-4.713-.569-7.116-1.861-1.873.848-3.332 1.296-5.079-4.325-6.449-7.553-13.561-10.881-20.589-2.873-6.065.513-10.965 7.064-10.667.833.038 1.631.094 1.948-.17 2.5-8.625-1.104-17.083-.05-26.312-1.845-1.39-4.571-2.42-8.461-1.152-5.272 1.719-7.604-1.672-5.75-7.522 3.128-1.827 6.479-.498 9.722-.704 6.578-.42 7.15-1.048 6.706-8.181-.444-.753-1.106-1.19-1.928-1.416-7.129-.088-14.226-.595-21.335-.249-2.229.108-4.483.161-6.54-1.028-.862-.663-1.114-1.574-.978-2.635 1.939-3.241 5.153-2.367 7.834-2.2 7.033.438 12.722-2.812 18.218-6.608 2.935-2.027 3.57-5.075 2.277-8.537-.729-1.947-2.484-3.51-2.104-6.016 2.551-2.849 7.811-1.075 9.318-5.277 1.104-3.076-.361-6.298-1.126-9.336-8.2-1.847-10.114-5.082-8.063-13.166.636-2.508.817-5.119-.048-7.631-1.242-3.607-.624-6.309 3.804-7.695-4.694-2.998-6.036-8.427-10.078-10.535-.184-3.354 2.601-3.345 3.464-5.363-1.915-3.107-3.604-6.495-5.144-9.966-.101-.999.175-1.865.828-2.601l2.304-.292c.533-.133 1.067-.151 1.606-.036.387-.042.757.022 1.109.194.781 1.166 1.571 1.149 2.368.018l9.748-.282c.553-.048 1.104-.033 1.653.045l5.807.028c.533-.126 1.051-.085 1.551.151l3.585.141c5.396.204 10.791.424 16.135 1.31l2.459.377c.352.274.463.539.333.795-.126.252-.251.377-.375.377z"/><path fill="#FECE56" d="M483.102 264.626c-.004 13.012.114 26.024-.048 39.033-.18 14.533-.603 29.064-.948 43.595-.232 9.779-.755 19.558-.678 29.333.043 5.169 1.652 10.34 1.567 15.491-.187 11.145-1.066 22.275-1.545 33.418-.195 4.519-.156 9.054-.101 13.58.123 10.272.323 20.546.492 30.817-20.516-4.465-39.565-11.812-52.838-30.015-2.199-3.015-3.546-6.702-5.288-10.079-4.037-6.037-4.611-13.025-5.073-20.048.211-1.744.854-3.306 1.862-4.707 6.598-5.479 10.406-13.217 14.961-20.323 11.62-18.129 20.238-37.871 27.126-58.335 2.823-8.385 5.369-17.117 5.903-26.203 1.473-8.165 2.922-16.326 3.029-24.668.054-4.162.676-8.092 4.125-10.854l7.454-.035z"/><path fill="#FEC035" d="M528.938 474.794c2.288-6.312 3.324-13.653 7.144-18.708 6.608-8.744 5.432-18.534 6.389-28.179.194-1.973.44-3.941.583-5.918.086-1.2.326-3.352-.026-3.478-5.144-1.834-2.594-6.076-2.998-9.438-.54-4.512-1.421-8.979-2.124-13.269-8.924-.276-9.117-.638-7.146-8.689.647-2.642.784-5.417 1.083-7.602l10.705-3.627c1.242.011 2.485.021 3.726.029 2.069 1.356 4.132 1.374 6.19-.022 21.81-.129 43.617-.319 65.427-.233 1.35.007 3.855 2.192 3.861 3.374.077 14.141.353 28.322-.575 42.41-.923 14-8.822 24.165-19.611 31.892-12.559 8.994-26.498 14.438-41.581 16.705-1.004-.229-1.824.168-2.568.821-2.885.524-5.77 1.048-8.656 1.571-1.315-.132-2.474.438-3.658.891l-6.243.449c-3.192-.956-2.894-3.037-1.354-5.527-1.822 1.887-1.265 4.938-3.627 6.257l-4.941.291z"/><path fill="#1B618F" d="M502.921 152.975c-.037 5.01 1.808 6.49 6.492 4.377 1.754-.792 4.294-.598 6.178.065 2.338.823 4.368 2.599 7.205 4.389l-4.498.779c-2.656 6.333 6.927 12.099-.275 18.375l3.304 3.85-3.428 4.98-5.372-2.291c-7.861 5.648-1.84 11.049.304 15.999 2.175 5.023 5.565 9.474 8.952 15.042l-4.074 3.881 4.556.336c-1.392 4.775-2.764 9.485-4.135 14.196l1.406-.263 1.994 14.116-3.454.377c-2.262-1.075-4.518-1.113-6.767.042l-30.74-.501c-1.357-1.689-.073-3.161.244-4.784.863-4.422 2.842-8.734.29-13.427-1.64-3.018.29-6.306.75-9.429.877-5.955-1.454-11.561-1.182-17.542.613-13.468 1.972-26.969.212-40.477-.359-2.757-.232-5.541-1.525-8.125-1.152-2.3-1.462-4.554 1.416-5.911 5.847-1.346 11.744-.761 17.617-.54 1.766.066 3.737.25 4.53 2.486z"/><path fill="#4B86A9" d="M430.734 65.459l1.198-1.282c1.317-.41 2.156-1.285 2.428-2.711l3.618-2.708c.924.355 1.36-.01 1.37-1.007l.111-.099c.794.191 1.077-.47 1.467-.954l3.246-1.773c2.762-.459 4.787-3.425 7.946-2.536 7.861.035 9.11 1.351 8.577 10.052-.244 4.006-.576 8.03-1.159 12.012-.689 2.448-2.713 3.62-4.464 5.075-10.277 8.541-8.9 23.677 2.714 30.241 1.728.976 4.077 1.096 4.806 3.556-2.798 4.424-1.17 9.428-1.566 14.149-.306 3.651-.635 7.201-2.082 10.576-.755 1.085-1.812 1.73-2.963 2.249-.592.251-1.205.415-1.834.522-2.845.264-5.69.448-8.5-.302-.578-.221-1.109-.54-1.589-.941-3.938-4.4-6.578-9.792-10.138-14.513-3.534-4.684-6.762-9.626-10.465-13.812-.243-1.158-1.058.272-.404-.255.225-.182.327-.031.443.414.669 2.56.653 5.121-.401 7.529-.587 1.339-1.632 1.959-2.765.351-1.276-6.306-1.892-12.562 1.154-18.569l1.883-20.193c-.32-1.39.822-2.168 1.252-3.245l3.026-7.443c.795-1.643 2.562-2.539 3.091-4.383z"/><path fill="#A9CFD2" d="M421.483 100.722l-.076 19.343c1.061 1.128 1.311 2.567 1.44 4.05.031 15.258.031 15.256 14.575 14.775 1.424-.047 2.844-.088 4.225-.53 1.051-.183 2.055-.031 3.017.429.033.257.041.515.024.773 2.945 4.105 6.775 7.746 6.532 13.532-1.957 1.039-4.054 1.129-6.184 1.046-12.215-.043-24.424-.028-36.629.015-2.143.16-4.254.006-6.281-.785-1.852-.946-3.226-2.895-2.638-4.625 2.815-8.295-.721-16.592.379-24.791.587-4.379 1.092-8.499-.202-12.911-.65-2.22-.849-4.407-2.372-6.343-1.815-2.309-1.9-5.108-.942-7.914.214-.569.508-1.095.843-1.59 1.974-5.492.958-10.448-3.428-13.976-8.047-6.475-15.856-13.303-24.478-18.977-9.03-5.998-17.866-12.338-27.689-16.943-1.084-1.691-2.027-3.41-.833-5.476l2.366.995c.304.972.952 1.541 1.9 1.757 9.363 5.094 19.151 9.499 27.996 15.433 15.93 10.687 30.345 23.397 42.615 38.609 1.452 1.801 3.87 2.757 5.84 4.104z"/><path fill="#30709B" d="M479.399 152.983c5.833 13.891 3.315 28.429 3.42 42.835.045 6.222-2.354 12.513 1.066 19.042 1.512 2.885-.664 7.872-1.184 11.903-.187 1.447-1.042 3.192-.543 4.282 3.183 6.959 1.284 13.331-1.591 19.677l-6.132.898c-.558-.478-.957-1.071-1.209-1.772-1.886-20.922-3.992-41.786-10.044-62.009-1.748-5.84-5.355-11.23-4.591-17.784 3.108-3.031 5.124-6.72 4.325-11.207-.825-4.642 1.602-5.883 5.059-5.808 2.432.052 4.297-1.08 6.363-1.923 1.95-.138 4.093-.849 5.061 1.866z"/><path fill="#4B86A9" d="M219.261 22.15c-1.628 1.214-3.14 3.249-4.902 3.521-34.785 5.387-66.649 18.75-95.216 39.765-23.462 17.259-43.525 38.42-59.413 63.628-2.592 4.114-6.064 7.627-9.129 11.417.426-7.437 4.977-12.52 9.312-17.727l.041-.496c.084-2.398 1.864-3.419 3.444-4.603l-.035-.009c2.333-5.109 5.064-9.892 9.822-13.014l-.02.019c.95-1.286 1.046-3.315 2.994-3.731l.819-.978c.099-.871.597-1.408 1.339-1.741 12.737-11.778 24.803-24.483 38.35-35.144 29.28-23.04 62.703-36.338 98.938-42.013 1.606-.252 3.269-.114 4.904-.158.074.949-.185 1.538-1.248 1.264z"/><path fill="#30709B" d="M458.312 74.777c.322-3.752.663-7.503.96-11.257.449-5.664-.114-10.607-7.242-10.729-.317-.459-.303-.892.095-1.294l2.06-.477c1.262.032 2.016-1.184 3.175-1.404l2.215-.427c5-1.323 10.141-1.986 15.104-3.484l3.471-.329c1.065.174 1.778.826 2.267 1.792 2.914 7.554 3.266 15.36 2.085 23.317-.505 3.394-1.903 6.099-5.164 7.396-3.467.351-6.531-1.386-9.8-2.065-1.979-1.727-3.994-1.638-6.039-.104-1.221.263-2.348.19-3.187-.935z"/><path fill="#DFE3E3" d="M474.372 250.583c.055.343.077.689.064 1.038l-.003 12.483c-.178.689-.579 1.18-1.2 1.477-11.834.61-22.484 5.022-32.62 11.07-3.218-1.647-5.025-4.135-2.424-7.473 2.094-2.688.623-4.725-.124-7.043.024-1.345.751-1.969 1.968-2.07 1.25 1.239 1.499.013 1.896-.859.601-.48 1.276-.63 2.012-.517.664.601 1.255.922 1.389-.43.241-.465.542-.872.884-1.257.93-1.008 1.73-2.141 2.8-3.013 3.418-2.479 7.577-2.409 11.366-3.634 4.672-.337 9.352-1.319 13.992.228z"/><path fill="#4B86A9" d="M616.618 221.466c7.92-30.12 2.326-60.883 3.975-91.301.208-3.846.024-7.715.033-11.573.028-14.287 1.178-28.721-5.121-42.173 2.318 7.813 6.458 15.583 6.637 23.45.756 33.223.676 66.482.073 99.712-.133 7.329-3.642 14.591-5.597 21.885z"/><path fill="#F0F5F4" d="M59.914 122.755l-9.312 17.727-.021.042c-.619 1.41-1.089 2.909-2.203 4.026-.248.26-.386.572-.413.938-.297 1.632-.964 3.06-2.143 4.204-9.612 18.338-15.386 38.074-19.597 58.382-.43 2.075-.999 4.119-1.503 6.176-.567-1.366-1.908-2.98-1.587-4.06 5.865-19.78 11.292-39.742 18.221-59.119 3.44-9.619 9.649-18.177 14.812-27.086.507-.876 2.463-.841 3.746-1.23z"/><path fill="#4B86A9" d="M294.821 28.598c-21.698-4.499-43.488-7.418-65.651-4.323-1.612.225-3.274.069-4.913.091-1.293-3.467 1.215-3.401 3.208-3.644 16.49-2.007 32.911-1.156 49.348.971 4.238.548 8.506.954 12.738 1.623 7.124 1.715 14.248 3.429 21.372 5.143.011 2.702-1.959 2.291-3.425 2.12-2.009-.235-3.988-.505-6.003-.172-.615-.022-1.191-.19-1.722-.517l-2.541-.131c-.947-.063-1.703-.559-2.411-1.161z"/><path fill="#30709B" d="M289.551 23.316c-12.381-.741-24.755-1.784-37.147-2.121-8.563-.233-17.156.446-25.726.916-.843.046-1.616 1.472-2.421 2.256-1.665-.74-3.331-1.48-4.996-2.218l1.25-1.26 9.915-1.09c.424.127.828.078 1.211-.149 19.462-1.467 38.819-1.14 57.914 3.666z"/><path fill="#54B8BC" d="M300.964 29.645c3.319-.396 6.638-.791 9.958-1.186 9.948 3.789 19.896 7.578 29.843 11.367l1.444 4.932c-.229.6-.641.986-1.237 1.163-4.527-.33-7.842-3.932-12.15-4.862-6.61-1.215-12.176-5.479-18.714-6.907-3.339-.862-7.218-.539-9.144-4.507z"/><path fill="#FEC43B" d="M473.17 264.704l1.265-.599 1.215.556c-1.395 9.488-2.729 18.987-4.224 28.459-.41 2.595-1.306 5.105-1.979 7.655-5.349-4.492-5.616-6.15-2.909-12.488 1.29-3.021.166-6.297-.355-9.341-1.45-8.454-.64-10.379 6.987-14.242z"/><path fill="#FEC035" d="M526.45 264.625c-.393 1.113-.814 3.207-1.173 3.194-6.25-.203-12.494-.624-18.728-1.158-.435-.037-.771-1.321-1.153-2.026 7.018-.003 14.037-.006 21.054-.01z"/><path fill="#4B86A9" d="M593.213 54.288c-8.271-2.751-16.542-5.502-24.812-8.253 9.064.16 17.367 2.809 24.812 8.253z"/><path fill="#F0F5F4" d="M73.186 104.634c-3.275 4.337-6.55 8.674-9.823 13.013.757-7.692 3.592-11.448 9.823-13.013z"/><path fill="#1B5D8A" d="M492.954 43.679l3.706-.331c1.828-.046 3.646.037 5.451.391 1.243.238 2.571.214 3.548 1.268.328.792.533 1.631.076 2.401-1.653 2.789-4.21 3.303-6.825 2.167-2.51-1.091-7.324.713-6.553-5.062l.597-.834z"/><path fill="#FEC43B" d="M533.876 474.503c2.31-2.749-.98-9.019 5.466-9.637l-.485 8.907-4.981.73z"/><path fill="#84AFC9" d="M479.359 46.404l-1.212-1.028 14.807-1.697c.219.188.27.415.151.684-4.301 2.734-8.708 4.695-13.746 2.041zM474.677 45.705c-5.034 1.162-10.069 2.323-15.104 3.484 5.034-1.161 10.07-2.322 15.104-3.484zM553.73 43.833l-16.135-1.31 16.135 1.31z"/><path fill="#FEC43B" d="M545.037 362.201c3.717-3.387 7.43-3.425 11.135.019-3.712-.008-7.423-.013-11.135-.019z"/><path fill="#4B86A9" d="M556.147 45.38c-.073-.393-.06-.784.042-1.17l7.385 1.189-7.427-.019z"/><path fill="#84AFC9" d="M501.473 44.783l-4.812-1.434 6.305-.997c.797 1.674-.258 2.113-1.493 2.431zM576.857 250.909l11.591-2.984c-3.863.994-7.727 1.989-11.591 2.984zM452.124 51.498l-.094 1.294c-2.619.711-5.237 1.424-7.856 2.134 2.649-1.144 5.3-2.286 7.95-3.428z"/><path fill="#4B86A9" d="M611.902 229.714c1.514-2.636 3.027-5.272 4.54-7.908-1.512 2.636-3.026 5.272-4.54 7.908z"/><path fill="#DFE3E3" d="M579.549 262.987c-2.015.285-4.028.571-6.041.854l6.041-.854z"/><path fill="#1B5D8A" d="M559.894 250.764c1.671-1.452 3.357-5.736 4.985.032l-4.985-.032z"/><path fill="#84AFC9" d="M511.309 251.225c2.236-3.253 4.494-3.105 6.767-.042-2.257.013-4.512.027-6.767.042z"/><path fill="#FEC43B" d="M552.463 375.894c-2.053 3.446-4.116 3.423-6.19.022l6.19-.022z"/><path fill="#4B86A9" d="M501.473 44.783l1.492-2.43 2.122-.093c.627-.14 1.26-.17 1.896-.089.381-.089.675.039.881.385l-.067 2.511c-.748.908-1.559.86-2.41.171l-3.914-.455z"/><path fill="#FEC035" d="M533.882 264.61l-2.134 3.58-1.578-3.551 3.712-.029z"/><path fill="#F0F5F4" d="M63.399 117.657c-1.151 1.532-2.302 3.063-3.448 4.599-.889-3.189-.262-5.146 3.448-4.599z"/><path fill="#84AFC9" d="M430.734 65.459l-3.091 4.381c1.032-1.46 2.061-2.921 3.091-4.381z"/><path fill="#4B86A9" d="M614.062 73.729l-3.493-4.839 3.493 4.839z"/><path fill="#F0F5F4" d="M76.16 100.921l-2.995 3.731 2.995-3.731z"/><path fill="#FEC43B" d="M545.101 473.324l3.658-.891-3.658.891z"/><path fill="#84AFC9" d="M434.36 61.466l-2.426 2.712c.807-.905 1.618-1.809 2.426-2.712zM457.358 49.617l-3.174 1.404 3.174-1.404zM569.616 251.222l5.341-.1c-1.781.032-3.561.066-5.341.1z"/><path fill="#FEC43B" d="M557.415 470.862l2.568-.822-2.568.822z"/><path fill="#4B86A9" d="M515.252 42.439l-.883 2.115-1.485-2.132 2.368.017z"/><path fill="#DFE3E3" d="M589.557 260.688l-2.531.827 2.531-.827zM586.428 261.804l-.677 1.753-.541-1.416 1.218-.337z"/><path fill="#A9CFD2" d="M424.618 77.284l-1.255 3.245c.42-1.082.838-2.164 1.255-3.245z"/><path fill="#4B86A9" d="M597.716 57.045l-1.932-1.279 1.932 1.279z"/><path fill="#84AFC9" d="M539.886 251.241l2.854-.034-2.854.034z"/><path fill="#F0F5F4" d="M78.318 98.203l-1.339 1.739 1.339-1.739z"/><path fill="#4B86A9" d="M614.689 74.833c-.348-.146-.496-.414-.442-.802l.519.237-.077.565zM604.018 62.036l-.83-.864.83.864zM600.961 59.386l-.054-.038.201-.258z"/><path fill="#84AFC9" d="M439.349 57.75l-1.368 1.01 1.368-1.01zM440.927 56.698l-1.466.957c.487-.322.977-.639 1.466-.957zM534.011 42.382l-1.551-.15 1.551.15zM526.653 42.203l-1.653-.044 1.653.044zM511.774 42.228l-1.606.036 1.606-.036zM506.982 42.17l-1.895.09 1.895-.09z"/><path fill="#54B8BC" d="M345.032 42.577l-1.9-1.755 1.9 1.755z"/><path fill="#4B86A9" d="M231.638 19.649l-1.211.149 1.211-.149z"/><path fill="#FEC43B" d="M542.55 264.625l-1.229-.003 1.229.003z"/><path fill="#84AFC9" d="M593.096 245.97l1.55-.625-1.55.625z"/><path fill="#1B5D8A" d="M560.08 123.885c-1.022.991-1.504 1.802-2.12 1.936-.419.091-1.026-.771-1.55-1.207.443-.579.793-1.445 1.363-1.65.469-.169 1.199.442 2.307.921zM555.845 99.881c.344.157.874.236.973.495.097.253-.245.689-.395 1.044-.342-.156-.874-.234-.972-.491-.098-.255.244-.691.394-1.048zM559.133 243.005c.151-.358.228-.91.476-1.014.242-.101.662.255 1.003.411-.15.356-.225.912-.472 1.013-.244.103-.663-.253-1.007-.41z"/><path fill="#FEC035" d="M539.377 429.917l-1.514-2.572c.73.034 1.537-.111 2.16.177.321.148.313 1.067.454 1.637l-1.1.758z"/><path fill="#028D92" d="M282.426 471.148c-6.157 1.273-12.264 3.048-18.481 3.724-15.921 1.73-31.753.074-47.484-2.56-7.899-1.322-15.844-2.607-23.582-4.668-17.386-4.634-34.36-10.731-49.315-21.284-14.528-10.252-29.294-20.434-42.396-32.486-9.774-8.991-17.63-20.493-25.299-31.653-7.345-10.688-14.713-21.767-19.659-33.754-10.804-26.188-18.848-53.033-19.599-82.336-.485-18.941 1.28-37.533 3.654-55.897 1.923-14.876 8.162-29.341 13.735-43.453 4.659-11.797 10.323-23.365 17.026-34.021 6.168-9.808 13.769-18.832 21.727-27.177 10.062-10.551 20.69-20.644 31.91-29.825 7.592-6.213 16.488-10.778 25.053-15.593 7.863-4.421 15.816-8.888 24.167-12.103 18.225-7.017 36.682-13.318 56.521-13.28 7.74.015 15.518-1.474 23.212-1.033 8.815.506 17.558 2.395 26.332 3.683 1.39 1.311 3.835.008 5.129 2.715-.943 3.975-3.513 7.44-6.291 10.787-2.817 1.461-5.654 1.121-8.354-.212-6.879-3.398-13.958-3.247-21.151-1.532-1.004.239-2.199.959-2.995.444-4.317-2.792-8.754-.433-13.048-.73-12.569-.873-23.038 6.915-34.982 8.055-12.473 1.191-23.118 8.834-35.383 10.711-1.04.159-1.963.618-2.778 1.319-10.157 8.75-21.23 16.004-33.101 21.944-1.903.952-3.392 2.419-4.878 3.913-6.658 6.698-13.688 13.194-19.341 20.706-8.461 11.244-17.009 22.457-25.132 33.942-4.094 5.79-5.654 13.658-8.914 20.337-3.348 6.862-4.736 14.578-8.427 21.287-3.091 5.62-1.349 12.48-3.741 17.9-3.876 8.781-4.115 18.104-5.827 27.213-.2 1.059-.593 2.212-.256 3.185 3.61 10.411 2.083 21.286 1.928 31.835-.325 22.026 7.034 42.185 13.961 62.043 4.285 12.287 10.254 24.727 18.437 35.34 2.093 2.714 3.767 5.635 5.042 8.829.476 1.19.714 2.829 1.724 3.362 8.161 4.304 11.005 13.669 17.416 19.622 3.532 3.281 7.253 5.931 11.538 8.281 5.267 2.888 9.398 8.113 13.74 12.562 6.271 6.424 13.983 10.59 20.821 16.079.486.39 1.126.692 1.719.688 11.573-.069 20.397 6.861 29.673 12.626 1.367.85 2.838.256 4.168.533 8.88 1.854 18.318.635 26.703 5.29 1.442.801 3.224.63 4.876.669 1.242.029 2.933-.807 3.627-.213 7.156 6.122 15.187.358 22.846 1.847 7.435 1.444 15.529-.151 23.312-.914 2.251-.22 4.495-.688 6.783-.544 5.026 3.518 6.05 7.418 3.634 13.797z"/><path fill="#DFE3E3" d="M332.586 481.566c-3.872 1.751-7.241 4.669-11.022 6.688-2.128 1.135-4.602 1.897-6.981 2.123-4.416.422-9.127-.592-12.009 4.491-.346.611-2.257.183-3.419.384-2.531.438-5.047.972-7.746 1.34-4.475.993-8.93 2.099-13.431 2.937-2.833.527-5.73.872-8.604.914-6.023.087-12.049-.146-18.074-.117-2.941.015-5.882.502-8.82.468-9.06-.103-18.132-.115-27.168-.689-2.714-.173-5.242-2.515-8.003-3.09-7.135-1.486-14.465-2.074-21.497-3.933-4.626-1.222-8.84-4.092-13.288-6.104-9.825-4.441-19.728-8.699-29.496-13.271-2.984-1.396-5.666-3.514-8.428-5.395-15.869-10.801-30.549-23.048-44.72-36.251-5.809-5.413-9.498-11.946-14.461-17.663-4.427-5.099-7.771-11.275-11.225-17.207-1.267-2.176-1.478-5.02-2.171-7.557 8.134 10.113 16.147 20.335 24.453 30.292 3.973 4.762 8.5 9.022 12.776 13.51.21.642.598 1.125 1.177 1.439l.01-.003c2.637 2.86 4.83 6.271 8.69 7.616l.083.062c.705.952 1.244 2.181 2.75 1.797l.467.364c.721 3.748 4.46 3.636 6.586 5.589l.055.053c8.476 8.762 19.071 14.173 29.474 19.749 12.083 6.479 24.599 11.865 37.833 15.543 25.451 7.072 51.095 11.1 77.52 8.52 29.895-2.918 58.189-11.033 84.231-26.938 1.612-.984 3.056-2.181 4.527-3.339.412-.421.873-.788 1.362-1.106 1.578-.985 3.726-.792 4.926-2.572.305-.43.645-.829.988-1.224.508-.578 1.08-1.083 1.714-1.504 1.02-.625 2.114-1.095 3.195-1.585.806-.388 1.548-.879 2.194-1.528.314-.345.654-.654 1.001-.959.711-.647 1.348-1.371 2.037-2.051.399-.337.829-.608 1.282-.854 2.662-1.271 4.858-3.256 7.18-5.048 6.118-5.115 12.088-10.415 18.309-15.399 1.082-.469 2.166-.968 3.306-.169-3.44 4.679-6.877 9.36-10.332 14.026-.101.137-.433.064-.578.189-7.669 6.572-15.33 13.155-22.99 19.739-.999.858-1.873 1.979-3.005 2.545"/><path fill="#A9CFD2" d="M354.174 463.333c-4.145 3.211-7.89 7.397-12.509 9.454-14.592 6.501-29.167 13.529-44.407 17.815-13.122 3.691-27.12 4.151-40.774 5.599-17.836 1.891-35.569-.106-52.796-4.607-15.73-4.11-31.381-9.136-46.378-15.518-11.612-4.941-22.245-12.448-33.107-19.176-2.184-1.353-3.445-4.323-5.13-6.547 7.936 4.677 15.618 9.924 23.866 13.899 12.7 6.119 25.778 11.39 38.732 16.928.85.363 2.01-.062 3.026-.121 14.963 4.654 30.25 7.503 45.792 8.926l1.903-.47c5.894 1.025 11.896-.475 17.778.826l2.569.053c2.402-.97 4.847-.597 7.292-.244l2.469-.198c.942-.371 1.961-.208 2.921-.462l2.083-.003c.849-.187 1.707-.269 2.573-.256l2.431-.182c.373-.279.775-.357 1.214-.2l3.657-.574c10.488-1.751 20.446-5.574 30.625-8.53 1.97-.571 3.903-1.23 5.955-1.36 6.947-.847 13.041-4.384 19.5-6.757 1.065-.443 2.125-.909 3.163-1.423 1.024-.537 2.046-1.075 3.063-1.632 4.916-1.488 8.591-6.712 14.489-5.24z"/><path fill="#0F979D" d="M278.71 50.339c1.666-3.304 3.331-6.607 5.197-10.31l-3.959-2.598 18.567 2.499c1.371-.88 2.295-.487 2.814 1.065-2.278 4.563-2.678 10.389-8.348 12.679-1.462.591-2.059 2.638-2.236 4.384-.937 9.167-3.054 18.125-3.154 27.49-.07 6.582.639 13.007.984 19.502.124 2.323.584 4.74-1.365 6.614-1.422.875-2.97.992-4.56.856-3.361-.539-5.244-2.569-4.907-6.129.276-2.906-1.469-4.209-3.257-5.652-1.026-1.797-1.375-3.93-.283-5.525 5.001-7.308 2.862-15.77 3.595-23.708.323-3.503.73-6.295 3.539-7.901-3.781-3.82-4.482-8.237-2.627-13.266z"/><path fill="#30709B" d="M314.564 479.923c-10.81 2.753-21.612 5.546-32.442 8.211-1.508.37-3.158.113-4.742.144 3.408-1.361 6.815-2.719 10.116-4.035v-13.16c-.825-.649-.837-1.474-.472-2.379 3.833-.412 7.629-1.264 11.516-1.09 4.585-.507 9.226-.593 13.471-2.201 2.33.706 1.208 3.059 2.266 4.248 2.822 3.337 1.806 6.792.287 10.262z"/><path fill="#0F979D" d="M298.538 468.534c-3.688.013-7.376.024-11.065.036-1.033 1.215-2.665 1.458-3.784 2.533l-1.263.044c-1.237-4.315-2.474-8.632-3.71-12.947-2.273-3.046-.998-5.88.469-8.701 1.876-1.804 3.235-.714 4.501.893 1.135 1.438 2.042 3.172 4.092 3.422 3.901-.187 7.167 2.036 10.566 3.403 3.622 1.46 3.493 6.929.194 11.317z"/><path fill="#137599" d="M301 41.285l-2.484-1.355c.419-3.349.838-6.696 1.258-10.042.39-.116.787-.198 1.191-.243l9.828 2.763c1.964 2.126 3.118 4.316.512 6.816-3.068 2.657-6.018 6.006-10.305 2.061z"/><path fill="#30709B" d="M230.49 489.985c-15.896.545-31.13-2.602-45.793-8.924 6.303 1.111 12.595 2.287 18.908 3.322 7.609 1.245 15.248 2.301 22.847 3.611 1.412.245 2.695 1.307 4.038 1.991z"/><path fill="#A9CFD2" d="M109.132 442.488c-5.137.235-7.351-3.147-8.69-7.616 2.896 2.539 5.793 5.077 8.69 7.616zM119.019 450.301c-3.221-.551-7.662.461-6.59-5.588 2.199 1.861 4.395 3.725 6.59 5.588z"/><path fill="#30709B" d="M250.171 490.342l-17.776-.828c5.924.277 11.85.553 17.776.828zM260.031 490.15l-7.292.246 7.292-.246z"/><path fill="#4B86A9" d="M48.377 144.55l2.204-4.026-2.204 4.026zM45.822 149.692l2.144-4.204-2.144 4.204z"/><path fill="#028D92" d="M283.689 471.104c1.26-.845 2.521-1.689 3.783-2.533l.023 2.513-3.806.02z"/><path fill="#137599" d="M294.821 28.598l2.413 1.16-2.413-1.16z"/><path fill="#30709B" d="M270.078 489.231l-2.573.255 2.573-.255z"/><path fill="#A9CFD2" d="M111.966 444.348l-2.751-1.797 2.751 1.797z"/><path fill="#30709B" d="M265.421 489.49c-.973.156-1.947.312-2.921.465l2.921-.465z"/><path fill="#DFE3E3" d="M61.066 388.333l-1.59-2.419 1.59 2.419zM58.854 384.588l-.682-1.021.682 1.021z"/><path fill="#A9CFD2" d="M100.431 434.875l-1.178-1.439 1.178 1.439z"/><path fill="#30709B" d="M273.723 488.85l-1.214.2 1.214-.2z"/><path fill="#1B618F" d="M505.386 45.237l2.41-.169 8.217 11.717-6.038 1.988 12.682 15.026-6.366-.317c.203 1.706.615 3.42.567 5.118-.117 4.068-.453 8.129-.699 12.193l-1.642-.047c1.435 2.266 2.868 4.533 4.105 6.488 2-.166 5.367-.682 5.426-.416.978 4.5 2.783 9.443 1.725 13.536-.608 2.358-5.996 3.375-9.445 5.103 3.068 3.69 5.585 9.475.839 13.587-4.589 3.976-9.904 8.237-16.839 7.811-3.688-.227-7.401-.03-11.103-.024-5.152-3.442-3.842-8.756-3.375-13.613.631-6.562.918-12.858-4.485-17.681-.994-2.295-.262-4.431.56-6.554.558-1.215 1.488-2.289 1.366-3.778-.081-1.028-.08-2.055.038-3.074.176-1.344-.494-2.4-1.113-3.479-.754-4.238-5.214-6.522-5.366-11.067 4.302-4.723 5.627-10.077 4.177-16.555-1.064-4.751-1.146-9.741-1.666-14.625 4.581-.681 9.163-1.362 13.746-2.042-.314 6.519 6.287.581 7.429 4.479l4.85-3.605z"/><path fill="#30709B" d="M458.368 139.324c-.191-.124-.337-.292-.438-.498.163-6.627.072-13.282.651-19.873.167-1.904 2.256-3.626 3.465-5.431 7.41-1.131 13.351-5.597 19.592-9.381 5.26 3.198 7.226 10.371 6.352 18.599-.487 4.593.767 9.388 1.234 14.092l.125 2.131-2.582.093c-1.573-1.245-3.196-1.159-4.851-.192l-7.49.58c-.373.354-.805.469-1.305.348-.766-.351-1.44.149-2.155.219-.939-.039-1.936.197-2.73-.586-2.9-.027-5.802-.054-8.703-.08-.395.456-.784.449-1.165-.021z"/><path fill="#4B86A9" d="M521.607 140.399l-1.224-1.069 1.224 1.069z"/><path fill="#C2BA53" d="M473.17 264.704l-6.545 7.386c.545 4.344 1.261 8.619 1.523 12.923.091 1.487-1.234 3.018-1.39 4.584-.212 2.12-.22 4.368.25 6.422.387 1.691 1.595 3.178 2.438 4.756-2.196 10.051-3.017 20.721-6.876 30.021-7.828 18.86-16.894 37.21-26.299 55.288-3.68 7.074-9.646 12.856-14.569 19.227-2.59-1.442-1.851-4.101-1.899-6.286-.307-13.899.052-27.805.031-41.698-.021-13.684-.191-27.391-.463-41.083-.24-12.092 3.588-22.641 10.452-32.109 2.574-3.551 5.244-7.216 9.913-8.092 10.024-7.371 20.737-12.531 33.434-11.339z"/><path fill="#A9CFD2" d="M439.737 276.042c-4.99 7.185-10.854 13.904-14.674 21.711-2.693 5.506-3.52 12.473-3.602 18.81-.254 19.612.305 39.234.431 58.854.064 9.964-.121 19.929-.192 29.895l-1.632 3.688c-6.232 6.531-12.465 13.064-18.696 19.598-.455.357-.853.773-1.193 1.249l-.026.043-2.625 1.114c-.994-.429-2.035-1.34-1.63-2.274 1.562-3.599-.497-6.332-1.672-9.304.353-5.009 5.241-9.757.276-15.033 5.56-4.482 5.539-9.924 5.057-16.483-.47-6.386 1.415-12.926-.243-19.538-.548-2.187 1.633-4.231 3.029-6.081 1.231-.889 2.629-.941 4.04-.881 3.871-1.292 1.173-3.996 1.192-6.104-.498-2.727-.497-5.455-.068-8.183.294-1.411.491-2.827.175-4.271-.28-1.719-.431-3.433.196-5.107.952-.733.995-1.541.158-2.417-.376-1.117-.387-2.23.023-3.337.856-.788.918-1.537-.114-2.233-.663-1.644-.567-3.326-.265-5.02.315-1.33.366-2.665.021-4.007-.303-1.655-.422-3.303.178-4.915.821-.712 1.06-1.479.181-2.349-.395-1.061-.41-2.142-.19-3.239.333-1.317.783-2.6 1.115-3.922.122-.542.274-1.071.426-1.604.542-1.962.305-4 .548-5.995 3.585-14.42 11.214-26.025 22.583-34.96 1.667-1.31 3.324-3.543 5.939-1.753l5.919 4.464-6.628 4.112 1.963 5.472z"/><path fill="#FDFDFD" d="M577.665 441.209c-10.36-.087-18.974-9.559-19.17-20.449-.206-11.494 11.223-18.895 19.497-18.948 10.238-.065 18.679 8.922 18.741 19.91.061 10.632-8.687 19.573-19.068 19.487z"/><path fill="#FEC43B" d="M549.213 414.564c-.925.882-1.491 1.797-1.9 1.725-.641-.109-1.373-.791-1.659-1.43-.126-.282.699-1.431 1.181-1.497.57-.081 1.236.581 2.378 1.202zM539.461 458.831c.705 1.191 1.449 1.919 1.316 2.354-.173.569-.998 1.064-1.637 1.26-.232.072-1.075-.84-1.034-1.234.066-.626.639-1.196 1.355-2.38z"/><path fill="#DFE3E3" d="M400.179 429.847l1.193-1.252-1.193 1.252z"/><path fill="#1B618F" d="M421.44 123.885l-.033-3.82 1.712-13.304c7.638 11.355 14.591 21.692 21.545 32.029l-2.459.558c-5.353.082-10.706.004-16.06.035-3.054.019-4.481-1.207-4.405-4.603.081-3.623.458-7.285-.3-10.895z"/><path fill="#A9CFD2" d="M455.854 139.437l-1.243-.023 1.243.023z"/><path fill="#137599" d="M408.9 315.017l-.008 6.295c.559.909.557 1.822.013 2.737l-.005 6.298c.313.477.311.962.037 1.455l.025 3.715c.249.468.255.939.018 1.414l-.029 6.38c.497.896.484 1.788-.023 2.676-.021 3.413-.04 6.828-.06 10.242.832 2.48 1.074 4.83-1.343 6.593l-4.825.195c-.422.279-.87.322-1.341.165-.381-.221-.582-.858-.97-.837-.815.044.094-.342-.016.518l-.547.494c-.444.234-.908.39-1.394.489-.745.131-1.493.179-2.247.202-.515.045-1.026.048-1.54.045-1.055.012-2.105.003-3.159-.069-.827-.06-1.627-.238-2.406-.537-.525-.214-1.02-.489-1.501-.787-7.628-1.894-8.296-3.077-6.241-11.033.213-.826.504-1.629.711-2.454 1.672-6.632-1.324-10.644-7.921-9.666-7.857 1.166-15.789 1.653-23.611 3.167-4.506.873-9.29 1.579-12.597-3.239.667-1.166 1.714-1.807 2.876-2.296 5.65-1.405 11.402-2.336 17.009-3.94 1.148-.327 2.299-.645 3.386-1.173.536-.299 1.086-.552 1.642-.804 32.445-13.496 50.832-42.924 50.372-77.532-.37-27.827-12.496-49.784-34.335-65.865-2.123-1.563-4.961-2.452-5.404-5.75.306-2.566 3.129-3.302 3.783-5.595 1.37-4.806 5.449-9.279 1.066-14.742-1.394-1.738-.94-4.474-.405-6.8.197-.582.496-1.104.896-1.562 1.898-.764 4.004-.187 5.897-1.004 2.78-.664 5.672-.185 8.443-.925.799-.176 1.607-.226 2.418-.147 1.249.233 2.509.338 3.78.112.801-.026 1.497.207 2.007.89l6.26.269c10.031 1.219 20.092-.145 30.123.38 4.307 6.26 7.011 13.32 9.151 20.609 1.029 3.505 2.29 6.855 3.785 10.171 3.875 8.594 4.889 17.824 5.96 27.186 1.571 13.729 2.164 27.506 3.188 41.261-3.741 1.406-7.482 2.811-11.223 4.216-1.04.286-1.777 1.255-2.886 1.387l-.086.03c.046.927-.307 1.142-1.06.643l-2.284 1.095c-.36.456-.81.763-1.366.894l-2.434 1.513c-14.392 8.277-22.54 21.501-27.296 37.412-1.389 1.966.268 4.539-1.193 6.491l.005-.015c-1.071 1.133-.334 2.709-.897 3.966l-.113 3.677c.244.512.216 1.01-.085 1.49z"/><path fill="#77C3C7" d="M401.353 152.341l-2.438.311c-.84.303-1.687.295-2.54.074l-2.44-.099c-3.017.638-6.069.144-9.1.314-1.914.685-3.918.257-5.868.508l-.034-.012c-2.417 2.604-5.585 1.696-8.495 1.996-1.258.019-2.492.205-3.673.695-1.769.592-3.529 1.41-5.4.38-3.78-3.338-5.253-7.359-4.128-12.598 1.378-6.415-2.781-12.356-1.602-19.016.922-5.209.949-10.665.796-16.047-.105-3.684.165-7.392-3.397-10.304 5.713-4.576 2.371-10.743 3.332-16.061 1.364-7.557 1.137-8.703 8.617-8.257.824.049 1.642.174 2.686-.305 1.989-2.106 1.686-4.871 1.154-7.62-.42-2.167-.982-4.284 1.497-5.564 8.143 6.388 16.79 12.213 24.208 19.413 3.497 3.395 4.635 9.43 7.153 14.951l-4.05.41-.009.009c.238 3.642-2.418 8.242 3.227 10.164.458.156.199 2.366.409 3.597.506 2.965 1.093 5.916.829 8.576-.253 4.295-.528 8.59-.756 12.886-.314 5.963-.653 11.927-.838 17.895-.04 1.223.556 2.468.86 3.704z"/><path fill="#54B8BC" d="M370.317 60.735c.007 4.275.105 8.554-.04 12.824-.039 1.149-.817 2.271-1.192 3.239h-12.604c1.812 4.868 5.281 8.592-.239 10.913.481 3.874 7.362 8.443-.789 9.894.933 2.451 2.438 4.572 2.418 6.676-.082 8.464-.694 16.922-.961 25.388-.052 1.625.562 3.275.879 4.911.475 2.452 1.89 5.208 1.26 7.296-1.649 5.463-.157 9.853 2.699 14.163-6.849 5.634-13.795 11.097-22.349 13.723-3.472-1.882-5.166-4.751-4.616-8.921.245-1.855-.264-3.635-1.951-4.363-6.917-2.987-8.162-8.84-6.462-15.331 1.488-5.68-1.094-10.9-.281-16.551 2.037-14.156 3.117-28.431 1.447-42.79-.702-6.04 3.517-11.887 10.63-13.921 3.811-1.089 4.792-3.219 4.126-6.422-.829-3.988.163-8.283-2.197-12.044-1.074-1.71.095-3.249 1.717-4.192l.395-.464c7.645 4.297 15.292 8.591 22.928 12.905 1.747.983 3.456 2.041 5.182 3.067z"/><path fill="#1B618F" d="M459.819 252.217c-.942-4.602-2.215-9.162-2.755-13.814-1.032-8.904-2.637-17.911-2.225-26.785.78-16.792-8.705-30.344-11.916-45.81-.867-4.175-2.895-8.088-4.389-12.123 2.326-1.598 5.017-.122 7.434-.955l6.082-.326-.118.373c4.681 4.337 5.87 10.458 7.657 16.272 2.244 8.134 5.02 16.157 6.615 24.426 2.723 14.097 4.798 28.333 6.942 42.543.725 4.802.835 9.707 1.225 14.564-4.85.546-9.701 1.091-14.552 1.635z"/><path fill="#4B86A9" d="M421.44 123.885c.318 3.099.993 6.214.863 9.292-.171 3.995 1.374 5.07 4.991 5.088 4.972.024 9.94.69 14.91 1.082-6.33.409-12.657.944-18.991 1.045-.684.011-1.951-2.474-2.005-3.841-.168-4.211.121-8.443.232-12.666zM445.969 152.73c-2.479.318-4.957.635-7.434.954-8.465.355-16.927.847-25.394.957-1.836.024-3.688-1.32-5.531-2.033 12.787.042 25.573.082 38.359.122zM459.59 169.049l-7.657-16.272 21.328.09c-3.169.957-6.337 1.913-8.515 2.57l-.903 13.327-4.253.285zM467.078 73.772l-5.131.208 5.131-.208z"/><path fill="#A9CFD2" d="M445.711 257.82l2.886-1.389c-.962.465-1.924.927-2.886 1.389zM440.915 260.481l1.366-.894-.563 1.605-.803-.711zM444.565 258.493l1.061-.642-.182 1.667-.879-1.025z"/><path fill="#38AFB3" d="M341.813 45.225c.261 3.634-.424 7.744.989 10.799 2.567 5.55 1.257 9.842-1.736 14.271-5.148-1.909-12.8 5.184-12.469 11.134.472 8.478.792 16.974.827 25.464.028 6.74-.358 13.49-.834 20.215-.084 1.179-1.522 2.255-2.334 3.378l3.575 4.411c-5.062 9.597-3.736 14.826 4.707 20.33 1.133.739 2.521 3.17 2.142 3.959-2.172 4.526.947 7.154 2.818 10.27 1.017 1.207.935 2.452.122 3.724-1.483 1.069-3.077.535-4.646.354-2.701-.231-5.434-.057-8.116-.578-1.873-.536-3.747-1.1-5.725-.526-.566.112-1.132.166-1.705.2-2.643.071-5.48.622-6.722-2.868 3.908-7.791-.951-15.805.583-23.729 1.224-6.32-1.544-12.965 1.03-19.281.247-.605.25-1.401-.2-1.827-4.692-4.436-1.966-8.751-.874-13.887 1.481-6.966-.048-14.512.976-21.778 1.346-9.568 1.457-19.13.204-28.747-.494-3.794-.495-7.755 1.62-11.26 1.763-3.12 4.567-1.685 7.436-1.593.119-4.226 4.036-5.108 6.146-7.692 4.062 1.753 8.124 3.505 12.186 5.257z"/><path fill="#4B86A9" d="M329.627 39.969c.043.634.294 1.737.098 1.832-3.809 1.833-3.556 11.193-10.94 6.488-.294-.188-1.083.465-1.64.727-.636-.518-.849-1.253-.983-2.029-.271-1.608-1.629-2.482-2.377-3.768-.67-1.404-1.562-2.644-2.582-3.792l-.308-.721-.102-6.299c6.278 2.522 12.556 5.042 18.834 7.562z"/><path fill="#01979D" d="M279.942 449.171l-1.227 9.029c-7.042.852-14.104 2.484-21.118 2.278-4.584-.135-9.938 3.357-14.013-1.759-5.868 5.559-11.263 2.84-17.321-.169-2.837-1.411-9.434 1.549-10.185.136-2.404-4.521-5.909-2.141-8.703-2.988-4.948-1.503-10.032-2.613-15.127-3.433-1.333-.216-2.915 1.241-3.842 1.677-7.057-4.382-13.774-8.566-20.513-12.711-.693-.426-1.55-.934-2.282-.863-14.864 1.449-22.995-10.215-32.793-18.434-4.28-3.59-7.336-10.48-11.915-11.607-8.971-2.207-13.141-9.109-18.385-15.146-3.837-4.417-6.768-9.204-12.001-12.742-4.322-2.921-6.045-10.085-8.799-15.438-4.171-8.109-7.58-16.743-12.504-24.311-7.288-11.201-9.268-24-12.309-36.587-2.025-8.383-4.481-16.652-6.688-24.988-.317-1.2-.475-2.496-.438-3.739.283-9.436 2.564-19.375.443-28.167-2.333-9.674 1.241-18.413.377-27.62-.312-3.323 2.898-6.86 3.82-10.487 1.467-5.775 1.76-11.928 3.636-17.525 3.185-9.502 7.63-18.547 10.791-28.057 4.364-13.131 11.811-24.009 20.765-34.004.645-.72.55-2.138 1.166-2.916 1.817-2.294 3.819-4.431 6.903-7.945 1.339-1.992 3.231-5.567 5.809-8.485 5.213-5.903 10.333-12.066 16.351-16.979 6.831-5.577 14.713-9.729 21.928-14.825 5.852-4.134 11.393-8.745 17.066-13.152.476-.369.854-1.007 1.375-1.161 6.212-1.835 12.452-3.569 18.667-5.394 7.395-2.171 14.751-4.481 22.162-6.592 6.123-1.744 12.382-3.018 18.422-5.019 3.395-1.125 6.006-4.416 10.304-1.547 1.544 1.031 4.734-.385 7.103-.983 2.928-.74 5.863-2.79 8.18 1.249.297.518 1.887.662 2.678.377 8.107-2.923 15.922-2.737 23.745 1.324 2.045 1.062 4.808.622 7.241.872l2.572 12.7c-.534 3.383-1.14 6.093-1.359 8.837-.537 6.716-.594 13.491-1.463 20.155-.389 2.985-2.263 5.76-3.463 8.631 2.49 4.679.184 6.579-3.946 6.401-4.531-.194-9.722 1.183-12.903-4.021-.211-.345-.683-.725-1.017-.67-8.741 1.423-17.191-7.126-26.108-.805-1.164.826-2.823.866-4.232.586-3.972-.786-7.709-2.148-10.609 2.826-1.135 1.946-4.178.887-6.281-.317-4.495-2.573-9.235-4.59-14.234-7.107-2.636 7.196-7.832 5.587-13.496 3.371 1.1 9.274-6.066 11.274-10.757 13.366-3.245 1.446-6.143 7.37-11.186 3.604-1.389 2.128-2.386 4.49-3.617 6.691-4.25 7.596-11.337 8.71-18.566 9.037-4.953.224-6.64 2.003-6.962 7.302-.345 5.667-2.185 11.289-6.531 15.45-1.361 1.303-3.056 2.529-3.454 4.455-1.007 4.86-3.899 7.26-8.432 8.127-3.192.611-5.082 2.676-5.164 7.162 3.185-2.81 6.433-3.609 10.036-2.281 2.079.766 4.022-.215 5.967-.992 3.133-1.251 6.055-1.2 8.251 1.972-.462 4.953-6.358 3.12-7.827 6.816-.387.399-.823.739-1.29 1.029-1.857.848-4.075 1.02-5.299 3.072-.364.4-.782.727-1.232 1.011-1.433.67-2.789 1.449-3.71 2.85-.368.412-.782.76-1.233 1.064-1.466.75-2.613 1.913-3.711 3.138-.392.398-.818.748-1.268 1.07-2.652 2.087-6.442 2.965-7.022 7.232-.098.526-.255 1.036-.434 1.535-.279.724-.625 1.419-.98 2.106-.22.457-.486.886-.779 1.297-.297.402-.629.773-.98 1.129l-1.012 1.122c-.646.852-1.046 1.848-1.554 2.792-.29.525-.625 1.001-.993 1.464-4.248 6.177-7.707 12.688-8.356 20.456-.071.853-.251 1.724-.61 2.492-10.366 22.201-3.443 42.67 6.124 62.657 7.5 15.669 19.475 26.917 34.61 34.232 5.138 2.483 10.705 4.488 16.619 4.483 2.136-.001 3.939.948 5.735 2.119 3.527 2.298 7.731 2.763 11.334 1.426 5.458-2.025 10.854-1.55 16.358-1.604 3.882-.039 7.726-.632 11.432-2.192 3.169-1.334 6.434-3.225 10.014-1.092.963 3.289-1.31 4.99-3.427 5.994-4.651 2.203-9.481 3.873-14.479 5.308-9.409 2.698-19.096 1.981-28.588 3.789-7.995 1.522-16.792 1.985-24.769-2.546-3.351-1.903-7.245-2.291-11.324-1.034 6.592 2.97 8.069 12.495 16.319 13.12.575.045 1.391.475 1.545.979 2.209 7.247 8.506 9.558 13.99 12.996 3.969 2.488 5.885 6.088 1.901 11.537 4.575-1.144 7.261.57 9.599 3.229 1.914 2.175 4.505 2.731 7.173 3.384 5.456 1.334 11.747 1.664 13.058 9.387.104.616.56 1.494 1.099 1.443 7.664-.716 13.498 9.513 22.348 3.566 3.01-2.023 7.284.778 10.35 2.814 4.58 3.043 9.204 4.388 14.639 3.579 3.95-.587 7.368.178 10.246 4.173 2.421 3.36 6.403 2.964 9.827.214 5.612-4.508 7.87-4.209 12.255 1.453 4.881-.364 8.605-3.716 12.851-5.775 4.785-2.32 8.748-1.14 8.998 3.727.529 10.409 3.174 20.828.638 31.31z"/><path fill="#54B8BC" d="M354.174 463.333c-4.886 2.151-9.772 4.304-14.658 6.456-1.282-.557-2.006-1.385-1.328-2.905 2.668-5.362 1.806-12.537-2.635-14.435-7.132-3.046-7.774-9.107-7.391-15.355.854-13.924-.891-27.846.36-41.745.038-.425.041-.889-.102-1.279-4.101-11.239-1.637-21.709 3.417-31.879 1.158-2.329.944-4.25-.698-6.479-4.087-5.55-2.365-9.871 4.487-12.017 8.056 7.163 17.672 11.75 26.6 17.475.355 1.484-2.215 2.183-.937 3.963 1.958 2.726.859 4.812-1.453 6.504-2.172 1.589-2.673 3.865-2.06 6.265 2.979 11.651 1.778 23.691 3.2 35.475.568 4.71 3.181 8.742 5.217 12.899 1.917 3.914 3.186 8.013 6.065 11.663 3.342 4.235 1.041 9.549-1.598 14.002l-.14.1c-.97.601-1.802 1.383-2.625 2.175l-.134.125c-.718.85-1.51 1.613-2.424 2.233l-3.537 1.912c-.51.227-.963.54-1.36.942l-.06.022c-1.444 2.297-3.849 2.933-6.1 3.834l-.106.049z"/><path fill="#77C3C7" d="M370.662 451.939l1.308-14.697c-4.358-1.399-8.208-1.876-5.611-7.904.773-1.795-2.904-5.371-3.907-8.361-1.734-5.175-3.601-10.449-4.241-15.834-.636-5.358.481-10.919.219-16.358-.145-3.005-1.738-5.902-2.333-8.922-1.016-5.147.069-9.476 5.959-11.479l-4.31-5.268 3.968-1.634c.766-1.084 1.845-1.192 3.002-1.059 1.754.364 3.294 1.61 5.197 1.374.494-.069.99-.081 1.483-.071l.726.09c.463.104.919.251 1.363.407.71.145 1.386-.04 2.063-.27.75-.21 1.508-.239 2.276-.18 1.377.149 2.719-.192 4.082-.296 2.336.759 4.883-.571 7.151.793l-.104.424c.836.786 1.664.823 2.48-.03l3.731-.009c.398.492.8.496 1.206.01l2.513-.003c.402.475.789.484 1.157-.041l.013-.004c.46-.326.922-.344 1.386-.007l1.259.402c-1.168 3.611-3.015 6.875-.727 11.111 1.03 1.909-.54 5.224-.589 7.907-.119 6.487-.039 12.978-.039 19.676l-6.037 2.21c6.464 5.612 1.598 10.481-.175 15.569-3.215 4.481-9.586 3.666-12.82 8.268.136 2.594 2.945 3.361 3.551 5.691.788 3.032.095 5.564-2.173 7.412-1.979 1.612-3.607 3.398-4.612 5.791-2.803 1.765-5.609 3.529-8.415 5.292z"/><path fill="#84AFC9" d="M379.081 446.649c.355-1.69.197-3.845 1.152-4.997 5.768-6.955 5.852-6.878-.479-13.034 3.34-6.303 10-6.602 15.381-9.131 5.743 2.723 1.526 7.693 2.395 11.517-6.152 5.215-12.301 10.431-18.449 15.645z"/><path fill="#A9CFD2" d="M354.282 463.283l6.1-3.834c-.255 4.351-3.271 3.932-6.1 3.834z"/><path fill="#77C3C7" d="M365.339 456.572l2.426-2.234-2.426 2.234zM367.897 454.214l2.625-2.179c-.875.729-1.75 1.454-2.625 2.179z"/><path fill="#A9CFD2" d="M360.441 459.427l1.36-.944-1.36.944z"/><path fill="#4B86A9" d="M338.275 467.244l1.241 2.545-2.84 1.341c-.743.256-1.548.35-2.173.91-6.646 2.629-13.292 5.258-19.938 7.884l-1.157-10.03c.702-2.68-.01-5.706 1.821-8.115 1.171-2.104 1.787-5.197 5.239-2.476 1.231.972 2.714-.431 4.061-.838 1.945-.532 3.684-1.865 6.217-1.655 1.284 4.269 7.379 4.902 7.529 10.434z"/><path fill="#38AFB3" d="M334.503 472.04l2.175-.91-2.175.91z"/><path fill="#029CA2" d="M131.303 175.536c-2.861-2.489-5.633-2.598-8.932-.5-1.418.902-3.944.971-5.543.309-4.816-1.994-7.447-.373-8.501 4.814-4.739-6.367-3.32-10.846 3.907-12.782 3.647-.978 7.436-1.48 6.931-7.021-.088-.967 1.066-2.316 1.967-3.079 5.864-4.965 8.379-11.19 8.295-19.158-.033-3.123 1.16-6.567 6.568-6.188 12.245.857 20.951-4.735 23.592-19.781l4.356 6.52 1.527-7.603 3.354 3.729c3.847-2.846 7.36-5.446 11.597-8.582l-.732-6.49c2.152 0 3.997-.566 5.238.097 5.508 2.944 9.478 3.436 8.384-5.715 6.341 3.292 11.795 5.903 17.032 8.924 3.183 1.837 5.423 2.991 6.801-2.023.276-1.001 3.276-1.462 5.075-1.677 3.583-.427 7.281-.104 10.789-.834 4.854-1.011 9.212-2.043 14.121.918 2.758 1.665 6.948.752 11.383 1.063.071.093.829 1.087 1.583 2.084.757 1 1.512 2.004 1.957 2.594 2.812.128 5.252-.094 7.542.417 4.159.927 5.873-.56 5.405-4.911 4.03-.319 5.792.89 4.401 5.603-.339 1.148 1.941 3.136 3.017 4.738 1.727 6.082-.116 11.912-1.943 17.419-1.477 4.451-9.084 5.953-13.579 3.261-6.475-3.878-12.128-4.886-18.263 1.473-3.601 3.732-8.669 4.949-14.08 1.206-6.664-4.611-10.698-2.953-17.033 2.707-3.875 3.462-9.578 4.521-14.519 5.927-3.745 1.065-7.984.578-11.748 2.542-.84.438-2.02-.085-3.073-1.167-2.605 5.814-7.803 9.17-11.568 13.893-2.338 2.932-5.794 2.165-8.976 1.565 3.602 1.534 6.989 3.526 10.489 5.266 2.763 1.374 5.048 3.324 2.599 6.996-.616.27-1.247.377-1.912.342-12.972-3.415-25.779-.286-38.621 1.026-2.08-.076-4.199-.274-5.663 1.805-1.021.79-2.059 1.386-3.224.273z"/><path fill="#01A3AA" d="M180.883 171.635c-1.144-1.735-1.921-4.133-3.5-5.081-4.679-2.809-9.674-5.047-14.94-8.449 15.494 5.204 18.601-8.751 24.624-14.688 3.003-.447 4.852-.61 6.642-1.042.726-.175 1.63-1.513 1.933-1.339 7.276 4.188 12.303-4.612 19.016-3.542.588.094 1.484-.447 1.917-.976 6.699-8.197 11.565-9.01 19.728-3.215 3.265 2.319 9.979 1.321 12.376-1.84 4.268-5.626 10.955-6.619 17.194-2.551 8.181 5.334 14.405 2.068 15.031-7.731.219-3.413.992-6.787 1.512-10.179l4.963-.001c2.218 4.552 3.026 8.612 1.687 14.285-1.584 6.708-.068 14.304-.441 21.522-.076 1.472.565 3.004-1.197 3.834-.78.366-1.61.589-2.421.841-.739.345-1.412.798-1.965 1.432-2.013 2.928-2.055 6.48-2.901 9.77-1.14 4.431-3.726 6.382-8.225 5.612-5.266-.9-10.457-2.161-15.66-3.267-7.305-1.553-15.33-3.93-21.793 3.035-1.455 1.567-3.081 1.676-5.079 1.174-6.09-1.53-9.855 2.298-13.991 6.001 2.247 3.876 5.78 6.679 2.819 10.962-2.522 1.582-4.822.494-6.836-.96-5.908-4.262-12.523-7.02-19.001-10.069-1.355-1.456-2.765-2.701-4.839-1.264-2.578.37-4.891-.084-6.653-2.274z"/><path fill="#1AA5AA" d="M286.12 149.717c.569-8.238 3.317-16.543-.868-24.732 2.869-1.851 5.835-3.428 2.553-7.724-1.031-1.349-.333-4.133-.427-6.26-.776-5.277-1.843-10.53-2.234-15.837-.301-4.069.003-8.237.477-12.306.942-8.095 2.193-16.151 3.296-24.226.112-.82-.228-1.927.178-2.449 3.902-5.021 7.92-9.945 11.905-14.897l9.896-2.579.037.039c.479.468.885 1 1.24 1.574.411.529.901.966 1.45 1.335.344.28.664.586.959.919l2.506 3.919c-1.236 1.733-5.209 2.382-1.553 5.526-4.155 2.178-4.155 2.178-7.365 1.534-4.21 9.784-4.724 20.447-4.677 30.643.047 10.09-.326 20.307.7 30.418.134 1.32 1.467 2.059 1.985 3.784-4.918 3.842-3.763 8.74-2.988 14.643 1.152 8.766 3.302 17.875.712 26.778-1.118 3.845-1.443 7.493-.599 11.62 3.342-.039 6.409-4.708 10.052-1.042l6.459 1.852c-.867 2.413-3.057 2.817-5.002 3.232-25.769 5.518-43.763 22.666-59.584 43.09-1.292 1.669-2.379 3.517-3.986 4.908-1.565 1.354-3.588 2.266-4.958.448-4.629-6.146-10.906-11.143-12.819-19.256.202-.621.593-1.067 1.165-1.341 4.158-.343 5.369 3.456 7.447 5.909 5.299 6.256 6.616 6.398 11.983.116 7.684-8.995 15.731-17.55 25.329-24.381 2.911-2.071 3.961-4.885 4.319-8.691.832-8.853.537-17.824 2.412-26.566zM315.897 462.09l-2.489 7.803-1.088-2.139c-4.58.26-9.181.521-13.782.78 2.6-8.673-.383-12.131-11.152-12.926-3.681-5.527-2.093-12.059-2.705-18.053-.617-6.052-.411-12.349-.1-18.538.152-3.04-.319-6.031-2.404-8.374-1.331-1.497-2.396-2.953-1.66-5.119 7.545-4.838 5.117-12.698 5.88-19.823 1.725-16.102-2.719-32.386 1.569-48.354.55-2.047-.404-3.146-1.884-4.232-10.568-7.752-19.606-17.207-27.955-27.434-.582-1.632-.576-3.197.475-4.644 4.684-.562 6.638 3.605 9.243 6.212 9.144 9.144 19.218 16.807 30.846 22.079 10.63 4.82 21.748 7.696 33.398 8.047 2.95-.605 5.986-1.907 8.477 1.137l-2.419 1.014c-2.041.586-1.614 2.793-2.516 4.142-5.98-.286-12.023.247-17.841-1.735-13.119-5.028-14.563-4.271-15.789 11.365-.736 9.391.083 18.79 1.267 28.079.681 5.344-1.583 10.729.155 15.789 5.13 14.938.518 29.943.698 44.899.069 5.73 2.056 8.584 8.425 10.379 2.129 2.835-2.341 8.156 3.351 9.646z"/><path fill="#029CA2" d="M281.196 405.291c1.443 2.6 3.483 5.035 4.186 7.836 1.004 4.002 1.283 8.261 1.421 12.427.334 10.013.405 20.036.583 30.055l-7.444-6.438c-.308-3.6-.729-7.193-.899-10.8-.306-6.466-.172-12.97-.783-19.401-.396-4.168-2.894-5.997-6.96-3.805-5.301 2.859-10.604 5.718-16.799 9.057v-8.651c-3.356 1.758-6.096 2.636-8.146 4.391-3.257 2.789-10.495 3.526-12.079-.081-2.724-6.206-7.42-3.716-11.545-4.229-3.257-.406-6.669-.498-9.694-1.644-4.136-1.565-7.971-3.998-12.356-6.28-.83 1.903-1.458 3.343-2.293 5.262-7.602-2.557-15.214-5.115-23.379-7.859l-.558-5.685c-6.125-6.08-16.129-2.185-21.263-10.344-.753-1.197-4.227-.535-7.964-.871.722-2.127 1.706-5.027 2.945-8.683l-11.231-7.312-1.419 1.787c-1.429-3.023-2.475-6.357-4.42-8.962-1.302-1.741-3.936-2.359-5.877-3.642-2.105-1.389-5.359-2.589-5.891-4.531-1.361-4.975-4.268-5.702-9.048-4.971l1.736-8.082c8.142 2.356 15.767 5.438 23.648 6.548 5.424.763 11.203-1.208 16.823-1.955.941-.126 1.907-.459 2.82-.344 12.275 1.541 23.735-2.093 35.042-6.233 2.09-.766 3.591-3.277 5.364-4.982-.371-1.7.853-2.055 1.944-2.522 2.436-.766 5.625.565 7.132-2.796 3.722-5.159 10.751-5.882 14.136-11.478.237-.478.515-.933.802-1.377.271-.436.583-.846.9-1.245l.458-.596c.279-.41.587-.8.9-1.184.311-.384.678-.703 1.083-.973.444-.186.907-.266 1.383-.244.714-.003 1.427-.045 2.106-.345 1.638-1.312 2.57-3.309 4.179-4.621 1.642-1.339 3.33-2.72 5.262-.41.981 2.219.394 4.163-.911 6.021-6.866 9.773-14.692 18.557-25.179 24.108-4.792 2.537-8.782 6.328-13.762 8.544-3.433 1.526-4.146 4.901-4.133 8.649.011 3.301 1.688 4.519 4.341 5.248 4.228 1.164 5.229 5.083 6.312 8.782 3.75.383 8.075 1.568 10.535.102 4.367-2.6 7.808-6.014 12.752-1.744 12.38-1.852 12.38-1.852 17.057 10.675 6.814-3.153 14.167-3.144 21.539-2.948 1.857.05 3.717-.011 5.566.215 9.48 1.159 10.679 2.251 11.505 12.296.445 5.399 3.06 10.952-.427 16.265z"/><path fill="#30709B" d="M484.333 91.643l-.483-2.649.483 2.649zM483.852 98.16l.489-2.646-.489 2.646z"/><path fill="#1B618F" d="M481.917 138.863c1.738-3.256 3.36-3.325 4.851.192l-4.851-.192z"/><path fill="#A9CFD2" d="M468.236 139.423l3.726-.616c.403.146.806.143 1.206-.01l1.259.645-6.191-.019zM458.368 139.324l1.165.02-1.165-.02z"/><path fill="#4B86A9" d="M473.168 138.797l-1.207.012 1.207-.012z"/><path fill="#FEC43B" d="M466.959 268.151l-.436-.37c.166-.095.339-.273.497-.259.154.013.293.223.438.346l-.499.283z"/><path fill="#54B8BC" d="M407.525 362.821l1.342-6.594c1.152 2.551 2.745 5.201-1.342 6.594zM409.992 305.897l1.193-6.491-1.193 6.491zM409.1 309.849l.897-3.966c-.3 1.322-.599 2.643-.897 3.966zM408.905 324.049l-.013-2.737.013 2.737zM408.928 345.986l.022-2.678-.022 2.678zM408.98 336.931l-.019-1.414c.147.331.333.653.416 1.001.024.096-.256.273-.397.413zM408.938 331.802l-.037-1.454.037 1.454zM408.9 315.017l.085-1.491-.085 1.491z"/><path fill="#84AFC9" d="M373.885 182.27c8.478 7.986 18.311 14.883 25.183 24.161 21.743 29.358 20.856 70.485-1.063 99.627-9.521 12.658-21.278 22.246-36.32 26.916-2.699-4.805-2.184-9.998.33-14.205 2.525-4.228 1.256-7.005-.907-10.31-1.223-1.869-2.954-3.614-2.473-6.259 1.981-3.288 5.351-5.015 7.909-7.658 21.994-17.708 24.541-51.185 5.963-72.757-4.258-4.944-10.242-7.818-13.654-13.554 1.542-2.866 4.69-4.238 5.896-7.819-1.634-.139-3.949.075-5.487-1.749 2.027-2.737 1.583-7.08 5.577-8.234-.394-3.136-1.108-5.789-3.374-7.959-1.514-1.45-2.424-3.487-1.252-5.789 2.796-1.654 5.151.178 7.632 1.031 1.292.631 2.56 1.319 3.813 2.036 1.012.58 1.79 1.389 2.227 2.522z"/><path fill="#0C89A1" d="M335.695 343.299c-.378-2.102-1.182-4.504 2.453-3.772 4.295.447 8.627 1.493 12.879 1.214 8.642-.566 17.228-1.976 25.859-2.791 5.122-.484 8.986 5.156 7.275 10.188-.544 1.601-.89 3.277-1.485 4.854-1.931 5.116-1.67 8.508 4.975 7.436.368-.059.933 1.204 1.407 1.849-2.919.185-5.837.371-8.755.56-.845.563-1.681.581-2.503-.052l-2.415.075c-.882.614-1.735.603-2.553-.131l-.008-.009c-.396-.49-.798-.471-1.205-.014l-1.246.014c-1.693-.085-3.289-.72-4.956-.946l-3.702-.289c-7.205-4.201-14.458-8.316-21.58-12.668-1.673-1.023-2.899-2.841-4.331-4.293-.487-.227-.666-.482-.537-.771.137-.303.278-.454.428-.454zM373.885 182.27l-2.309-1.389c-.916-1.22-2-2.059-3.603-1.724l-7.541-2.257c-.708.66-1.539.823-2.453.671-.86-.202-1.684-.526-2.507-.848-5.064-2.488-11.008-1.292-15.987-4.13l.012-3.14c7.417-4.468 14.833-8.94 22.25-13.414l4.883-1.339c.819-.54 1.86-.397 2.675-.947 3.209-.104 6.418-.208 9.626-.314.95 3.72 1.903 7.442 2.848 11.166.306 1.206 1.233 2.977.782 3.541-3.47 4.343-2.157 11.885-8.676 14.124z"/><path fill="#4B86A9" d="M383.994 152.502c3.314.041 6.627.082 9.941.124-3.288.327-6.576.651-9.864.976-.305-.222-.418-.459-.34-.711.081-.26.169-.389.263-.389z"/><path fill="#0C89A1" d="M383.994 152.502c-.002.369.023.735.076 1.1l-5.104-.15c1.676-.318 3.351-.634 5.028-.95z"/><path fill="#84AFC9" d="M359.209 334.106l2.465-1.121-2.465 1.121z"/><path fill="#54B8BC" d="M391.436 362.665l-2.48.03 2.48-.03z"/><path fill="#4B86A9" d="M396.374 152.726l2.541-.076c-.848.027-1.694.052-2.541.076z"/><path fill="#54B8BC" d="M400.043 362.622l-1.158.041c.385-.087.77-.101 1.158-.041zM396.373 362.666l-1.206-.01c.403-.09.805-.086 1.206.01zM401.441 362.611l-1.386.007 1.386-.007zM365.892 80.373c.151-.358.227-.911.476-1.015.243-.101.661.256 1.003.412-.15.357-.225.913-.472 1.015-.246.1-.664-.255-1.007-.412zM369.306 153.753l-2.675.949 2.675-.949z"/><path fill="#A9CFD2" d="M397.62 95.518l-.525-.296.534.287-.009.009z"/><path fill="#2AA9AD" d="M313.355 170.396c-4.249 1.253-8.499 2.506-13.987 4.125 1.916-8.489 3.635-15.723 5.074-23.016.164-.829-1.381-1.928-1.898-3.022-.584-1.235-1.658-3.096-1.215-3.84 3.231-5.42.93-10.634-.665-15.552-1.67-5.151.184-8.076 3.204-10.276-.509-2-1.396-3.83-1.36-5.639.129-6.348 3.068-14.491.322-18.612-4.199-6.305-1.839-12.739-.985-16.948 1.461-7.203-.269-15.194 3.814-21.87.596-.976.422-2.462.529-3.194h8.139c-4.066-5.495.461-5.051 2.761-6.059l.057 2.524c-.108 5.473-.131 10.948-.343 16.417-.361 9.332-.947 18.654-1.235 27.988-.194 6.271-.037 12.554-.037 19.499-5.456 4.031-5.086 7.546 2.746 12.446l-3.617 4.066c0 4.133-.442 7.388.093 10.457 1.118 6.413-1.144 12.846 1.055 19.435 1.009 3.028-1.525 7.34-2.452 11.071z"/><path fill="#1AA5AA" d="M325.74 171.589c-1.712.131-3.424.262-5.139.395l5.139-.395z"/><path fill="#54B8BC" d="M341.506 59.514l-.806.75c-.137-.3-.319-.59-.385-.906-.02-.097.332-.411.42-.375.281.113.517.343.771.531z"/><path fill="#137599" d="M310.952 41.32l-.02-2.576 3.65 3.829-.557.008-.556-.007c-.678-.769-1.832-.501-2.517-1.254z"/><path fill="#0F979D" d="M93.131 211.856c-3.267 10.049-7.027 19.959-9.681 30.182-3.627 13.973-1.115 27.783 3.524 41.036 18.86 53.891 81.195 70.774 124.324 40.903 2.877-1.992 5.964-3.654 8.954-5.471-2.085 2.725-3.862 5.816-6.34 8.069-2.383 2.165-5.491 3.462-8.281 5.141-1.71 2.898-5.228 2.026-7.444 3.87l-2.471 1.281c-5.888 1.396-11.748 2.948-17.677 4.121-2.9.574-5.942.332-8.899.659-4.802.532-9.659 2.083-14.362 1.654-6.854-.625-13.723-2.159-20.341-4.175-5.917-1.803-12.245-3.741-17.07-7.473-8.399-6.497-16.362-13.864-23.44-21.889-8.566-9.711-12.628-21.988-14.675-34.967-1.025-6.503-2.757-12.916-3.328-19.45-.297-3.396.971-7.054 2.006-10.436 1.455-4.757 3.785-9.252 4.956-14.067 1.795-7.377 3.799-14.424 10.245-18.988zM176.032 172.404c-18.665-2.068-36.342 1.75-53.324 9.709l8.595-6.578 2.479-1.282c1.226-1.75 3.747-.803 4.958-2.584 5.853-.674 11.712-1.936 17.558-1.876 7.787.08 15.563 1.188 23.344 1.854-1.031 1.148-2.428.395-3.61.757zM106.844 193.861c-2.78 3.49-5.561 6.981-8.335 10.473-2.651-8.18 3.822-8.48 8.335-10.473zM122.741 182.08l-6.19 3.949c.131-4.604 3.319-4.008 6.19-3.949zM116.589 185.99l-4.988 3.92 4.988-3.92zM111.636 189.869c-1.642 1.366-3.284 2.733-4.925 4.101l4.925-4.101zM95.577 207.961l-2.489 3.929 2.489-3.929zM98.515 204.538l-1.679 2.217 1.679-2.217zM96.876 206.686l-1.379 1.324 1.379-1.324z"/><path fill="#38AFB3" d="M335.695 343.299c.043.407.079.815.108 1.224l-7.048 6.91c7.186 5.948 8.366 9.625 2.082 18.751-4.408 6.399-2.338 11.867-2.097 17.925.365 9.111.666 18.225.977 27.338.338 9.918.522 19.847 1.136 29.748.089 1.437 2.001 3.021 3.4 4.05 3.803 2.804 8.614 4.664 6.645 11.327-.356 1.203 1.271 3.044 2.319 5.324-1.351.368-3.148.858-4.943 1.349-2.873-2.856-5.748-5.713-8.999-8.943l-4.723 1.192c.254-4.319 2.235-8.701-.42-12.924l-.063-.621c-9.474-8.581-3.24-20.538-6-30.571-.566-2.06-.4-4.425-2.425-5.625-3.701-2.191-3.129-5.301-1.536-8.278 3.015-5.636 2.972-10.908-.97-15.972-1.896-2.437-2.625-4.854-.43-7.504 3.023-3.65 2.322-7.437.578-11.413-2.733-6.229-1.093-11.942 2.256-17.365.833-.172 1.34.661 2.093.749-.467-.175-.853-.462-1.141-.894-2.189-3.452-.422-5.958 1.83-8.349 5.79.856 11.581 1.714 17.371 2.572z"/><path fill="#54B8BC" d="M365.417 361.771c1.652.314 3.304.63 4.956.946l-4.956-.946zM372.832 362.727l2.553.13-1.069 1.869-1.484-1.999zM377.8 362.782l2.503.05-2.503-.05zM371.619 362.704l1.205.014-.603.029-.602-.043z"/><path fill="#2AA9AD" d="M317.108 349.786c-3.062 4.825-5.636 10.28-2.592 15.597 3.593 6.272 2.89 10.993-3.105 15.999 10.512 7.569 5.767 16.696 2.352 25.717l2.073-.689c1.249 2.878 3.341 5.686 3.57 8.648.477 6.165-.556 12.47.053 18.607.375 3.787.759 9.054 6.994 8.107-1.813 6.075 4.008 12.544-1.901 17.721-2.174.385-4.35.769-7.514 1.327l-1.141 1.27c-12.445 2.526-.889-6.777-4.38-8.745-4.889 1.324-9.824-4.855-9.173-11.565 1.017-10.483 2.189-20.989 2.374-31.504.091-5.206-2.33-10.409-2.79-15.691-.54-6.202-.071-12.49-.25-18.734-.192-6.673-.781-13.336-.903-20.009-.073-3.965-.052-8.051.778-11.883 1.045-4.822 3.079-9.049 9.275-5.9 2.355 1.196 4.99 1.798 7.497 2.669l-1.217 9.058z"/><path fill="#1AA5AA" d="M176.032 172.404l3.61-.755 1.24-.014 7.378 1.303c1.702-.997 2.683.299 3.762 1.284 6.25 2.903 12.487 5.835 18.756 8.693 2.372 1.081 4.814 1.992 7.226 2.979 7.078 1.545 16.486 12.029 16.152 17.999-.255.303-.532.582-.831.84-8.9-7.108-17.153-15.449-26.88-20.971-9.343-5.305-20.214-7.69-30.413-11.358z"/><path fill="#01979D" d="M138.74 171.67l-4.958 2.584 4.958-2.584z"/><path fill="#03A9B0" d="M234.156 203.893c-3.237-7.141-8.116-12.556-15.098-15.854-.549-.26-.712-1.409-1.054-2.145-1.029-2.997-2.058-5.995-3.086-8.993 1.222-7.668 10.105-12.071 15.792-9.026 4.818-2.532 9.026-4.867 13.363-6.907.783-.368 2.146.348 3.138.808.687.319 1.372 1.648 1.753 1.522 8.646-2.846 15.812 4.498 23.981 3.682 2.05-.205 4.488-2.784 5.614-4.921 1.79-3.395 2.626-7.336 3.867-11.045.446-.403.862-.836 1.254-1.295l2.441-.001c-.115 9.891-.064 19.79-.497 29.666-.079 1.796-1.78 4.013-3.329 5.162-11.715 8.686-21.751 19.121-31.023 30.516-.814 1-5.511-.268-7.538-1.76-3.547-2.614-6.422-6.219-9.578-9.409z"/><path fill="#029CA2" d="M192.022 174.222l-3.762-1.283 2.183-2.309 1.579 3.592z"/><path fill="#1AA5AA" d="M283.679 149.718l-1.254 1.295 1.254-1.295z"/><path fill="#0F979D" d="M300.911 51.229l-1.356 3.731-1.592-.645 1.423-3.703 1.525.617z"/><path fill="#4B86A9" d="M310.952 41.32l2.516 1.254-2.516-1.254z"/><path fill="#01A3AA" d="M281.196 405.291c-.431-6.916-.522-13.886-1.508-20.716-.278-1.93-2.944-4.529-4.905-4.979-11.19-2.569-22.373-2.583-33.18 2.424-3.315-3.64-.062-9.843-5.537-12.557-5.128-2.543-8.473-.583-11.436 3.124l-5.908-7.501c-.267 7.032-2.308 8.858-7.447 7.312-2.953-.889-6.473.262-10.197.527.138-5.914-1.877-10.532-9.184-11.04-.459-.033-2.013-8.889-.236-11.716 2.536-4.036 7.626-6.373 11.726-9.282 2.984-2.118 6.258-3.803 9.173-6.012 4.824-3.652 10.495-6.784 13.883-11.604 3.228-4.593 9.408-7.695 8.908-14.801l.358-.697c1.069-1.141 2.049-2.366 3.065-3.572.423-.377.881-.687 1.369-.96 8.169-3.928 12.892-3.26 18.805 2.641 7.518 7.711 14.868 15.613 22.651 23.02 2.524 2.402 6.187 3.505 9.13 5.095-5.593 14.889-1.769 29.063-.874 43.112-.889 1.595-2.535 3.194-2.526 4.782.029 5.192.516 10.399 1.101 15.567.66 5.846-4.487 5.569-7.231 7.833z"/><path fill="#029CA2" d="M258.944 305.882c-6.406-4.188-13.066-4.085-19.886-1.278-.001-4.512 4.893-11.831 8.387-12.504 2.261-.435 3.909.688 5.405 2.309 1.984 2.147 3.907 4.372 6.221 6.16l.025-.004c-.05 1.773-.1 3.545-.152 5.317z"/><path fill="#1AA5AA" d="M259.072 300.568c-2.284-1.622-4.888-2.92-6.781-4.941-3.1-3.309-5.535-3.225-7.943.552-1.782 2.795-3.527 5.616-5.289 8.425l.005-.005c-1.241 1.292-2.482 2.584-3.722 3.878l.005-.005c-3.29 2.581-6.579 5.162-9.868 7.744-.326-.359-.685-.678-1.073-.961l-.219-.331c8.162-9.309 16.325-18.616 24.939-28.439 3.21 4.543 6.578 9.314 9.946 14.083z"/><path fill="#01979D" d="M198.187 335.587l7.443-3.87c-.104 6.253-4.74 3.044-7.443 3.87zM242.193 419.056l-5.062-1.404.388-1.75 5.135.917-.461 2.237z"/><path fill="#1AA5AA" d="M220.194 318.52l1.377-1.211-1.377 1.211zM221.54 317.349l1.357-1.235-1.357 1.235z"/><path fill="#0F979D" d="M224.407 315.255l1.072.961-1.072-.961z"/><path fill="#137599" d="M358 207.745c.301.164.621.262.957.297 13.298 8.851 23.612 20.214 26.626 36.931 3.461 19.188-2.15 35.526-15.713 48.907-.835.824-2.14 1.133-3.225 1.681l-.499-.745c-.562-4.261 1.077-7.294 4.416-9.793 4.262-3.188 6.119-7.377 3.576-12.797-2.31-4.922 1.523-7.354 4.396-10.445-4.461-7.703-2.704-17.071-7.171-25.02-1.919-3.414-3.545-5.825-7.725-6.519 2.785-6.022-.359-9.771-3.948-12.495-6.049-4.592-11.902-9.387-20.207-10.005-5.593-.416-11.059-2.939-16.878-1.416-.613-.092-1.177-.311-1.706-.646-.693-.843-.82-1.667.076-2.454l1.035-.716c10.889-1.959 21.467-.301 31.908 2.965.665.096 1.137.534 1.606.978.278.174.58.265.903.275.637.149 1.108.578 1.573 1.017zM359.184 302.22l-9.86 4.686c-.418-.502-.736-1.154-.501-1.734 1.873-4.629 12.471-10.371 17.76-9.679l.062.068-7.461 6.659zM367.974 179.157l3.603 1.723-3.603-1.723z"/><path fill="#0C89A1" d="M366.583 295.492c-6.094 3.244-13.658 4.076-17.259 11.413-7.278 3.405-14.733 3.477-22.307 1.283-1.746-.695-3.587-.202-5.367-.473l.005-.033c-3.944-4.131-3.584-9.739-4.803-14.839-1.743-7.296-2.476-14.731-3.403-22.146-.294-2.349-.574-4.71 1.212-6.66 2.362-1.418 4.751-1.379 7.16-.152 2.747 2.779 1.634 6.403 1.927 9.721.216 2.442-.585 5.46 3.142 5.842.928.002 1.846.117 2.766.144 4.814.639 7.415-1.101 6.875-6.619-.204-2.091-.068-4.245.535-6.314.304-.956.809-1.779 1.475-2.501 2.363-2.502 5.245-1.479 8.004-1.296.596-.011 1.195.012 1.79.021.874-.049 1.752-.054 2.624-.134 2.647-.072 2.758-2.059 2.782-4.059.038-3.174.571-6.381-.476-9.585-2.941-1.569-6.07-.575-9.086-.829-1.708-.048-3.382-.226-4.935-1.044-.946-.608-1.647-1.435-2.083-2.503-1.114-4.713-1.219-9.428.021-14.129 1.707-2.869 3.771-1.477 6.068-.313 1.091-3.31-.203-6.367-.54-9.432-.387-3.527-2.701-5.703-5.811-5.264-5.571.785-8.932-3.654-13.437-5.291-2.144-.779-3.126-2.739-1.378-5.085 5.415-1.557 10.441-.324 15.932.62 6.708 1.153 12.553 2.871 17.756 7.08 3.788 3.063 7.525 6.294 10.725 9.979.852.981-.356 3.906-.674 6.368 8.751-1.172 7.104 7.874 9.19 12.733 2.725 6.346 3.205 13.739 4.776 21.285-3.817 1.744-6.646 4.522-3.432 10.616 1.771 3.357 1.072 7.665-2.493 10.194-3.972 2.816-6.182 6.681-7.281 11.402z"/><path fill="#38AFB3" d="M321.65 307.716l5.368.473-5.064.433c-.254-.248-.355-.55-.304-.906z"/><path fill="#84AFC9" d="M358.415 176.491l-1.704-.878 1.704.878z"/><path fill="#01A3AA" d="M229.104 250.413c.232.268.292.572.183.914.769 1.969 1.599 3.942-.304 5.752-4.777.433-6.957-3.25-8.771-6.695-6.662-12.652-17.726-19.289-30.066-23.909-5.466-2.046-10.918-5.404-17.234-3.557-2.491.729-5.546.547-5.671 4.546-.103 3.29-2.877 7.046 2.119 9.255 2.274 1.006 3.107 3.32 2.288 5.978-3.554 6.227-9.294 2.511-14 3.144-6.785.914-13.955-1.321-20.349 2.822-4.421.989-6.396-.591-5.232-5.433 1.194-4.964 3.172-9.726 3.408-14.94.071-1.569 1.025-2.848 2.265-3.674 10.614-7.066 21.652-13.005 34.588-13.744.41-.023.847-.184 1.226-.072 11.36 3.352 23.349 5.221 32.444 14.087 1.321 1.287 2.733 1.711 4.202 2.349 2.188.664 3.748 2.411 5.654 3.563l-.073-.046c.298 4.11 3.542 5.735 6.141 7.904l-.1-.065c.199.619.696 1.015 1.045 1.522.262.23.336.514.222.851 1.269 2.958 2.531 5.921 5.187 7.89l-.148-.072c.024.738.565 1.142.976 1.63z"/><path fill="#0F979D" d="M186.092 303.676c-13.783 8.462-39.014 6.875-54.376-5.627-21.185-17.24-27.333-44.107-15.167-67.586 12.405-23.94 41.238-35.304 66.606-25.406 7.052 2.752 13.17 8.099 19.718 12.256.072.796-.254 1.322-.971 1.583-4.49 1.047-8.773-1.416-11.269-3.909-4.294-4.29-9.202-4.65-14.16-5.207-22.2-2.493-44.982 8.159-53.167 30.848-8.279 22.951-6.478 46.784 20.662 58.103 4.01 1.673 7.807 3.942 12.205 4.445 7.324 1.896 14.608.502 21.886-.325 2.21-.251 4.351-1.25 6.635-.533.644.254 1.109.708 1.398 1.358z"/><path fill="#38AFB3" d="M314.643 264.682c2.338 14.332 4.677 28.664 7.013 42.999-1.531-.512-3.06-1.024-4.589-1.537-.895-1.558-2.714-.444-3.806-1.431l.099.082c-1.865-1.49-4.208-1.753-6.298-2.666l.106.08c-.628-1.056-1.881-.778-2.721-1.384l-2.23-1.291c-1.06-2.396-4.608-2.87-4.43-6.227.264-1.527 1.083-2.776 1.988-3.93 3.77-4.811 4.284-9.306.975-15.088-1.668-2.914-1.968-7.506-2.081-11.171-.156-5.026.26-10.189.546-15.284.198-3.514 1.096-6.9 4.802-7.09-1.597-3.753-.875-7.858-.877-11.854 1.461-.417 1.48-.439.94-1.077-.815-1.645-1.734-3.234-2.215-5.039 1.103-2.991 2.948-5.523 4.758-8.041 1.579-2.197 2.197-4.462 1.523-7.108l12.829-4.399-.099 1.994c.884 2.855 1.243 5.757.749 8.743-1.456 8.8-2.611 17.649-3.988 26.462-.33 2.114-.794 4.179-2.194 5.849-.585.59-1.237 1.144-2.053 1.322-3.102.674-6.041 1.244-5.827 5.796.192 4.106-.412 8.385 4.888 9.548.892.365 1.676.872 2.192 1.742z"/><path fill="#2AA9AD" d="M308.146 207.625c.469 1.862 1.88 4.271 1.231 5.485-1.941 3.631-4.688 6.795-7.12 10.142-2.281 2.135-3.815 5.359-7.434 5.543-.728-.341-1.733-1.28-2.218-.735-6.074 6.813-14.902 10.476-19.38 19.245-2.367 4.634-4.495 8.661-1.545 13.728.748 1.285.876 2.859.38 4.383-.259.606-.707.924-1.341.954-7.578-10.301-7.649-10.348-1.116-21.207 9.655-16.046 21.565-29.628 38.543-37.538z"/><path fill="#1AA5AA" d="M228.977 262.006c-6.283 12.912-15.377 23.389-26.046 32.471-.864.735-2.212.855-3.335 1.262-.5-.387-.829-.894-.991-1.519-.261-2.012 1.001-3.107 2.294-4.224 7.958-6.869 14.889-14.687 20.579-23.721 1.4-2.224 2.753-4.921 5.918-5.115.603.128 1.133.403 1.581.846z"/><path fill="#2AA9AD" d="M293.445 293.14c-9.885-6.794-16.743-16.379-22.726-26.77l.671-.569c2.977-.457 4.447 1.879 5.866 3.807 5.084 6.904 11.484 12.535 16.822 19.189.564 1.223.646 2.451.053 3.69l-.686.653z"/><path fill="#01A3AA" d="M199.415 294.269l.18 1.47-.016-.064c-.81.573-2.042.38-2.544 1.515l-1.111 1.032c-.541.302-1.01.703-1.455 1.14l-.479.183-.51-.003c-1.297.729-2.619 1.096-4.02.293-2.36-3.56-.588-5.839 2.235-7.773 3.368-2.309 5.657-.464 7.72 2.207z"/><path fill="#0F979D" d="M215.853 230.799l-5.275-2.337c-1.969-1.296-4.02-2.541-3.312-5.567.217-.578.594-.994 1.152-1.225l7.435 9.129z"/><path fill="#2AA9AD" d="M298.542 293.03l3.674 6.504-8.771-6.395.322-.348c1.655-1.298 3.249-1.255 4.775.239z"/><path fill="#0F979D" d="M221.92 238.657c-4.155-.855-8.229-1.78-6.141-7.903 2.048 2.634 4.095 5.269 6.141 7.903zM228.977 262.006c-.373-.044-.747-.074-1.121-.09-1.238-1.703-1.372-3.394.058-5.064l1.372-5.524c6.519 3.767.776 7.149-.309 10.678zM228.274 248.855l-5.187-7.889 5.187 7.889zM202.874 217.312l5.544 4.357-.463.49c-3.533 1.137-6.704 1.683-6.052-4.021l.971-.826zM189.518 299.443c1.321.032 2.642.064 3.963.098l-7.389 4.135-.358-.458c-.541-1.274.143-2.172.861-3.063.872-.683 1.718-1.506 2.923-.712z"/><path fill="#2AA9AD" d="M307.062 302.129l6.298 2.665c-2.1-.888-4.199-1.776-6.298-2.665zM313.261 304.713l3.806 1.43-3.806-1.43zM304.447 300.825l2.721 1.383-2.721-1.383z"/><path fill="#0F979D" d="M197.035 297.188l2.544-1.515-2.544 1.515zM194.469 299.36l1.455-1.14-1.455 1.14zM229.104 250.413l-.978-1.629.978 1.629zM222.865 240.114l-1.045-1.522 1.045 1.522z"/><path fill="#84AFC9" d="M358 207.745l-1.573-1.017 1.573 1.017zM355.522 206.454l-1.604-.979 1.604.979z"/><path fill="#2AA9AD" d="M317.109 349.786l.511.293-.511-.293z"/><path fill="#03A9B0" d="M250.343 305.042c7.391 10.565 14.229 20.341 21.812 31.182-2.751.862-4.527 1.314-6.227 1.974-3.546 1.378-7.557 2.168-10.467 4.457-5.344 4.203-11.914 4.078-16.402-1.349-8.094 5.198-12.007 3.454-14.634-6.526 8.866-9.142 13.239-22.591 25.918-29.738z"/><path fill="#029CA2" d="M235.342 308.477l3.722-3.878-3.722 3.878z"/><path fill="#0F979D" d="M314.601 246.555l6.273-41.334c.403-.014.807-.017 1.209-.008.197 1.025.342 2.928.595 2.944 5.255.327 7.977 7.108 14.478 5.399 2.988-.785 7.518 1.405 7.285 7.081-.183 4.445.339 8.921.593 14.352l-6.876-5.245c-2.169 2.132-4.917 1.57-7.512 1.79-2.154.182-4.521-.723-6.331 1.254-.46 1.082-.599 2.228-.655 3.39-.025 1.197-.043 2.39-.061 3.585-.003 1.228-.041 2.453-.131 3.679-.07.95-.276 1.863-.676 2.725-.333.547-.787.955-1.334 1.255-2.093.719-4.171.819-6.218-.19l-.639-.677z"/><path fill="#A9CFD2" d="M329.392 281.02c4.74-8.628 5.296-17.846 4.001-27.491-.562-4.191-.176-8.524-.19-12.793-.025-7.223-3.649-10.012-10.81-8.298 1.373-1 2.688-2.739 4.127-2.857 3.852-.317 7.755.061 11.638.163l.034 15.445c.389.412.688.884.881 1.428l5.268.333c3.108 2.602 6.748-1.285 10.803 1.442-3.666 4.453-.884 10.893-4.749 15.622l-2.292-.03c-.431.05-.863.053-1.294 0l-7.942.578c-.059.548-.281 1.011-.667 1.388v15.071c-3.294-.001-6.051-.001-8.808-.001z"/><path fill="#84AFC9" d="M350.396 264.013c.49-3.876.885-7.769 1.524-11.618.208-1.254 1.054-2.394 1.582-3.529-2.878-.603-6.019-1.261-9.159-1.917 3.42.001 6.842.001 11.099.001 0 4.764.4 9.251-.232 13.575-.203 1.385-3.133 2.337-4.814 3.488z"/><path fill="#A9CFD2" d="M321.931 264.653c.64 3.084 1.075 6.236 1.982 9.233.748 2.473 2.055 4.763 3.113 7.133-3.834 1.332-5.234-.248-5.067-4.274.167-4.022-.004-8.06-.028-12.092z"/><path fill="#84AFC9" d="M338.2 265.948l.673-1.39-.673 1.39zM346.81 263.982l1.295.002-1.295-.002zM339.074 246.617l-.882-1.428.882 1.428z"/><path fill="#03A9B0" d="M189.518 299.443l-2.469 1.299c-3.959 1.305-3.125-1.641-3.1-3.87-1.687.177-3.207.915-4.837 1.177-6.257 1.001-8.952-1.181-11.128-9.053-1.007-3.642 1.623-7.784 6.566-9.396 4.308-1.405 8.726-2.21 12.569-5.049 3.838-2.836 6.369-6.062 5.552-11.249-.067-1.075-.38-2.094-.651-3.115-1.109-4.17 1.126-9.827-2.815-12.4-3.218-2.102-7.934-1.122-11.911-2.053-2.325-.544-5.531.871-6.356-3.062-.138-1.053.015-2.289-.469-3.124-1.244-2.147-5.28-12.128-5.076-13.857.13-1.104.7-2.984 1.266-3.066 4.823-.699 10.068-2.508 14.471-1.254 11.97 3.408 23.478 8.405 32.708 17.593 2.155 2.145 4.112 4.529 5.989 6.948 2.776 3.579 5.398 7.288 8.086 10.941l-.057 5.066c-4.113 5.171-8.026 10.534-12.389 15.468-5.148 5.821-10.685 11.272-16.053 16.883-6.531-2.705-9.214-1.302-9.896 5.173z"/><path fill="#029CA2" d="M201.903 218.139c2.018 1.339 4.036 2.679 6.053 4.019.873 2.102 1.747 4.203 2.621 6.304-3.777-2.242-7.446-4.718-11.354-6.68-9.658-4.849-19.533-10.075-30.535-8.582-8.407 1.141-17.258 2.6-23.413 10.083-.26.316-.63.744-.961.755-5.8.197-7.851 2.616-7.374 9.191.299 4.123-2.739 8.509-4.626 13.734l5.212.859c4.145 1.071 2.634 4.734 2.878 7.353.922 9.878 1.163 10.107 10.754 10.289 10.989.209 21.979 1.039 32.95-.36 1.274-.162 2.458.012 3.278 1.204.42 5.077-3.035 7.028-6.733 7.602-9.875 1.531-19.472 4.498-29.398 5.761-5.047.643-10.246-.467-15.188 2.031-2.929 1.48-3.524-3.075-7.529-4.102 8.317 7.847 14.808 15.535 23.745 20.167 2.89 1.498 4.91 3.124 3.793 6.847-12.521-3.011-23.599-7.846-31.905-19.265-5.926-8.147-6.255-16.815-6.367-25.838-.177-14.101 4.755-26.768 14.439-36.163 13.123-12.731 29.132-17.42 47.381-15.227 7.317.879 11.569 6.319 17.715 8.507 1.511.539 3.042 1.01 4.564 1.511z"/><path fill="#0F979D" d="M187.047 267.164c-5.529.005-11.059.012-16.588.014-7.708.003-15.419-.141-23.122.048-5.646.139-8.233-2.19-8.17-8.305.038-3.693-1.056-7.399-1.641-11.099 2.939-1.28 5.839-3.514 8.825-3.646 6.563-.29 13.169.648 19.761.706 1.602.015 3.217-1.434 4.826-2.21 5.109.854 10.196 2.139 15.335 2.428 4.321.243 6.877.822 6.565 6.371-.22 3.896 1.036 7.883 1.633 11.83-1.248 1.905-2.604 2.769-4.292.492-1.868-3.147-1.181-6.689-1.333-10.075-.154-3.43-1.646-5.12-4.951-5.153-11.969-.124-23.937-.075-35.906-.025-4.374.019-4.901 2.931-4.875 6.487.03 3.933.42 7.43 5.414 7.52 10.73.192 21.461-.005 32.191.112 3.064.033 6.217-.454 9.106 1.175 1.57 1.145 2.061 2.52.526 4.021-1.296 1.269-2.466.923-3.304-.691z"/><path fill="#01A3AA" d="M187.047 267.164c3.095 1.423 3.699-.233 3.409-2.994l.356.311-.388-.267 4.048-.914c-.021 8.5-6.433 15.313-14.817 16.945-4.031.785-7.764 3.24-12.552 5.343 3.391 4.836 5.075 9.722 8.027 10.786 3.337 1.203 7.814-1.025 11.929-1.786 1.389 2.043-6.419 4.254-.009 6.154l-1.315 2.476c-7.527.896-15.042 1.954-22.589 2.592-2.31.195-4.709-.765-7.068-1.196-1.691-1.74-3.273-3.616-5.094-5.193-5.321-4.613-10.75-9.092-16.112-13.653-2.154-1.832-4.351-3.635-6.32-5.669-1.018-1.051-1.58-2.58-2.348-3.893l1.599-1.699c2.525 1.668 5.049 3.336 7.533 4.978 4.993-.568 10.658-1.224 16.326-1.854 5.152-.574 11.505.646 15.194-2.072 6.325-4.663 16.06.714 20.191-8.395z"/><path fill="#1AA5AA" d="M298.542 293.03l-4.778-.237c-.064-1.22-.13-2.438-.196-3.657-7.908-9.513-7.662-21.288-7.674-32.685-.008-6.695 1.442-13.489 3.08-20.055.825-3.311 1.385-7.308 5.834-7.934l7.449-5.208 2.478 5.195-.022.022v11.16c-1.703 3.741-3.747 6.675-4.335 9.897-.839 4.596-2.494 10.949-.38 13.744 2.867 3.793-.005 8.145 3.316 11.474 1.824 1.829 1.551 5.93 2.268 9.211-2.248 2.897-4.644 5.984-7.04 9.073z"/><path fill="#F7FCFC" d="M314.579 248.057c-.711 5.203-1.422 10.406-2.131 15.607-1.991-.003-3.983-.003-6.312-.003v-16.332l8.465-.775-.165.362c.893.267.94.646.143 1.141z"/><path fill="#1AA5AA" d="M304.735 228.448l.512.302-.534-.28.022-.022z"/><path fill="#03A9B0" d="M294.808 228.462c-6.038 6.431-5.752 15.055-6.715 22.978-.914 7.522-.778 15.304-.068 22.866.364 3.867 3.035 7.484 4.58 11.251.464 1.13.65 2.383.963 3.579-5.303-5.45-10.63-10.875-15.897-16.363-2.163-2.252-4.193-4.643-6.283-6.97-.062-.638.074-1.406-.22-1.891-3.981-6.561-3.817-12.786 1.602-18.339 4.473-4.583 9.249-8.845 13.78-13.367 2.364-2.36 4.493-4.977 7.356-8.181l.902 4.437z"/><path fill="#A9CFD2" d="M314.579 248.057c-.128-.369-.175-.75-.142-1.14l7.617-.378c-1.693 4.774-4.764 2.183-7.475 1.518zM322.417 236.092l-.001 3.996.001-3.996zM322.413 243.925l-.341 2.59.341-2.59z"/><path fill="#F0F5F4" d="M190.456 264.17h-48.603v-17.369h48.574c0 6.091 0 11.754-.001 17.416l.345.234-.315-.281z"/></g></svg>