<svg xmlns="http://www.w3.org/2000/svg" width="500" height="500" viewBox="0 0 500 500"><g fill-rule="evenodd" clip-rule="evenodd"><path d="M62.905 245.893c1.549-.565 3.066-1.498 4.654-1.641 18.781-1.692 37.568-3.323 56.364-4.838 5.98-.482 11.992-.572 17.132-.803-1.219-11.02-2.639-21.799-3.556-32.621-1.527-18.009 2.966-34.29 14.997-48.105 2.074-2.382 2.513-4.575 1.806-7.735-2.999-13.421-2.598-26.719 2.187-39.794 1.075-2.94 2.688-3.854 5.629-3.703 10.417.537 19.727 4.474 28.682 9.339 5.14 2.793 9.697 7.767 15.061 8.73 5.317.956 11.268-2.299 17.027-2.995 21.523-2.602 43.014-2.75 64.41 1.532 1.893.378 4.252-.275 6.087-1.119 10.334-4.757 20.194-10.918 30.938-14.317 14.276-4.517 15.045-2.432 17.145 10.25 1.501 9.067.188 18.584.365 27.895.048 2.496.134 5.687 1.586 7.353 16.218 18.606 19.922 40.528 17.518 64.122-.706 6.921-1.851 13.797-2.853 21.121 27.185.659 54.59.977 81.456 6.724l-.024 1.75c-1.521 0-3.085.232-4.56-.035-23.974-4.34-48.2-5.247-72.484-5.68-4.936-.088-7.398 1.493-7.41 6.746 28.286 1.48 56.527 3.51 83.71 11.931l-.41 2.307c-1.417-.312-2.854-.559-4.251-.945-25.234-6.985-51.09-9.396-77.129-10.33-1.56-.056-4.035.765-4.622 1.921-9.086 17.876-24.662 26.749-43.243 31.276-8.751 2.132-17.695 3.474-26.62 5.187 0 .042-.113.473.017.565 9.385 6.666 12.828 16.368 13.161 27.234.469 15.209.756 30.447.333 45.65-.223 8.062 2.541 13.689 9.036 18.07 1.945 1.311 3.292 3.508 4.912 5.298-2.588.76-5.273 2.376-7.743 2.094-4.793-.546-9.798-1.453-14.106-3.496-6.303-2.986-9.486-8.582-9.536-15.794-.089-13.168-.285-26.335-.447-39.502-.101-8.121-1.185-11.269-5.347-14.46-.161 1.657-.398 2.959-.4 4.261-.025 16.984.029 33.968-.04 50.951-.026 6.445 1.721 12.182 5.914 17.133.714.844 1.619 1.714 1.875 2.716.397 1.566.981 3.725.249 4.754-.702.988-3.073 1.396-4.547 1.135-13.251-2.357-21.548-12.078-21.906-26.553-.422-16.971-.196-33.957-.25-50.937-.005-1.722-.001-3.443-.001-5.438h-4.568c-.083.954-.198 1.716-.209 2.479-.276 18.396-.477 36.792-.833 55.187-.218 11.251-5.55 19.248-15.877 23.836-.867.385-1.799.994-2.666.94-2.673-.165-5.329-.602-7.992-.934 1.018-2.108 2.132-4.177 3.03-6.336 1.496-3.6 3.969-7.224 4.083-10.897.621-20.125.65-40.268.857-60.403.005-.415-.293-.833-1.781-1.666-1.191 3.381-3.288 6.729-3.413 10.147-.503 13.789-.443 27.599-.505 41.401-.063 14.352-15.036 25.335-29.059 21.31-3.127-.897-2.907-2.717-1.188-4.481 1.863-1.912 4.136-3.437 6.287-5.055 4.481-3.373 6.771-7.605 6.601-13.437-.282-9.646-.077-19.308-.077-29.245-5.07.307-9.592.689-14.122.837-21.043.686-32.663-6.524-40.998-25.711-3.778-8.696-9.319-15.78-17.249-20.991-1.057-.695-2.15-1.397-3.024-2.294-2.481-2.547-1.919-4.617 1.571-5.345 6.607-1.378 12.854-.154 17.736 4.517 4.556 4.359 8.65 9.253 12.584 14.199 10.349 13.013 25.712 17.288 41.042 10.843 1.794-.755 3.205-2.957 4.281-4.789 3.475-5.91 6.711-11.961 9.995-17.878-6.291-1.216-13.707-2.35-20.972-4.109-20.084-4.866-37.218-14.236-48.474-32.45-.715-1.157-3.126-1.818-4.732-1.79-24.834.438-49.29 3.766-73.353 9.953-2.313.595-4.687.957-7.231.508 12.883-5.377 26.461-8.005 40.176-9.74 13.952-1.767 27.992-2.842 41.996-4.22-.437-4.806-2.975-6.489-8.139-6.035-23.83 2.093-47.689 3.856-71.539 5.726-.878.069-1.766.009-2.649.009l-.355-1.29zm192.735 35.336c9.791-.486 22.178-.633 34.466-1.81 25.072-2.403 40.09-16.228 43.369-39.101 4.267-29.757-15.046-50.726-44.022-48.208-12.146 1.056-24.37 1.778-36.554 1.705-15.679-.093-31.351-1.625-47.029-1.66-24.689-.057-41.968 20.206-39.184 44.659 2.475 21.737 15.369 33.873 35.394 39.854 16.698 4.989 33.935 3.574 53.56 4.561zM217.88 232.659c-2.165 4.966-3.426 9.627-6.018 13.367-3.353 4.839-9.436 4.654-13.608.426-6.439-6.526-6.458-21.006-.036-27.567 4.035-4.121 9.907-4.5 13.268.139 2.83 3.906 4.228 8.851 6.394 13.635zM286.396 232.554c1.601-4.214 2.552-8.664 4.829-12.278 3.873-6.149 11.058-5.948 15.434-.126 4.938 6.57 5.104 17.992.355 24.671-4.593 6.463-12.27 6.46-16.295-.428-2.008-3.436-2.815-7.576-4.323-11.839z"/></g></svg>